<svg width="32" height="30" viewBox="0 0 32 30" fill="none" xmlns="http://www.w3.org/2000/svg">
<path d="M6.13339 0C3.02221 0 0.51709 2.44335 0.51709 5.47781V24.5222C0.51709 27.5566 3.02221 30 6.13339 30H16.7162V18.2719H13.5366V14.0494H16.7162V10.4419C16.7162 7.60762 18.5949 5.00531 22.9227 5.00531C24.6749 5.00531 25.9707 5.16938 25.9707 5.16938L25.8688 9.11251C25.8688 9.11251 24.5473 9.10033 23.1053 9.10033C21.5447 9.10033 21.2944 9.80167 21.2944 10.966V14.0494H25.9928L25.788 18.2719H21.2944V30H25.6592C28.7704 30 31.2755 27.5567 31.2755 24.5222V5.47784C31.2755 2.44338 28.7704 2.99999e-05 25.6592 2.99999e-05L6.13339 0Z" fill="#231F20"/>
</svg>
