<svg width="32" height="30" viewBox="0 0 32 30" fill="none" xmlns="http://www.w3.org/2000/svg">
<path d="M15.6507 9.99787C12.8268 9.99787 10.5222 12.2456 10.5222 15C10.5222 17.7544 12.8268 20.0021 15.6507 20.0021C18.4747 20.0021 20.7792 17.7544 20.7792 15C20.7792 12.2456 18.4747 9.99787 15.6507 9.99787ZM31.0323 15C31.0323 12.9286 31.0516 10.876 30.9323 8.80832C30.813 6.40669 30.2513 4.27525 28.4508 2.51907C26.6464 0.759128 24.465 0.215011 22.0027 0.098682C19.8789 -0.0176466 17.7744 0.00111617 15.6546 0.00111617C13.5308 0.00111617 11.4263 -0.0176466 9.30647 0.098682C6.84417 0.215011 4.65889 0.762881 2.85834 2.51907C1.05394 4.27901 0.496077 6.40669 0.37681 8.80832C0.257542 10.8797 0.276779 12.9324 0.276779 15C0.276779 17.0676 0.257542 19.124 0.37681 21.1917C0.496077 23.5933 1.05779 25.7247 2.85834 27.4809C4.66274 29.2409 6.84417 29.785 9.30647 29.9013C11.4302 30.0176 13.5347 29.9989 15.6546 29.9989C17.7783 29.9989 19.8828 30.0176 22.0027 29.9013C24.465 29.785 26.6502 29.2371 28.4508 27.4809C30.2552 25.721 30.813 23.5933 30.9323 21.1917C31.0554 19.124 31.0323 17.0714 31.0323 15ZM15.6507 22.6964C11.284 22.6964 7.75984 19.2591 7.75984 15C7.75984 10.7409 11.284 7.30355 15.6507 7.30355C20.0174 7.30355 23.5416 10.7409 23.5416 15C23.5416 19.2591 20.0174 22.6964 15.6507 22.6964ZM23.8648 8.7858C22.8452 8.7858 22.0219 7.98276 22.0219 6.98834C22.0219 5.99392 22.8452 5.19087 23.8648 5.19087C24.8843 5.19087 25.7076 5.99392 25.7076 6.98834C25.7079 7.22447 25.6605 7.45834 25.568 7.67655C25.4755 7.89476 25.3397 8.09303 25.1686 8.26C24.9974 8.42697 24.7941 8.55936 24.5704 8.64958C24.3466 8.73981 24.1069 8.7861 23.8648 8.7858Z" fill="#231F20"/>
</svg>
