<svg width="32" height="30" viewBox="0 0 32 30" fill="none" xmlns="http://www.w3.org/2000/svg">
<path d="M28.2214 0H4.05409C2.23467 0 0.758545 1.43973 0.758545 3.21429V26.7857C0.758545 28.5603 2.23467 30 4.05409 30H28.2214C30.0408 30 31.517 28.5603 31.517 26.7857V3.21429C31.517 1.43973 30.0408 0 28.2214 0ZM24.8641 10.6339C24.8778 10.8214 24.8778 11.0156 24.8778 11.2031C24.8778 17.0089 20.3464 23.6987 12.0664 23.6987C9.51234 23.6987 7.14366 22.9754 5.15261 21.7299C5.51649 21.7701 5.86664 21.7835 6.23739 21.7835C8.34517 21.7835 10.2813 21.0871 11.8261 19.9085C9.84876 19.8683 8.18725 18.6027 7.6174 16.8616C8.31084 16.9621 8.93562 16.9621 9.64965 16.7812C7.58994 16.3728 6.04515 14.6049 6.04515 12.4687V12.4152C6.64247 12.7433 7.34277 12.9442 8.0774 12.971C7.45978 12.5703 6.95347 12.0267 6.60366 11.3887C6.25384 10.7507 6.0714 10.0382 6.07261 9.31473C6.07261 8.49777 6.29232 7.74777 6.68366 7.09821C8.90129 9.76339 12.2312 11.5045 15.9661 11.692C15.3276 8.71205 17.6139 6.29464 20.3602 6.29464C21.6578 6.29464 22.825 6.82366 23.6489 7.6808C24.665 7.4933 25.6399 7.125 26.505 6.62277C26.1686 7.64062 25.4614 8.49777 24.5277 9.04018C25.4339 8.94643 26.3128 8.69866 27.1229 8.35714C26.5119 9.23438 25.7429 10.0112 24.8641 10.6339Z" fill="#231F20"/>
</svg>
