<svg width="17" height="18" viewBox="0 0 17 18" fill="none" xmlns="http://www.w3.org/2000/svg">
<path d="M0.75 17.9999C0.551088 17.9999 0.360322 17.9209 0.21967 17.7802C0.0790178 17.6395 0 17.4488 0 17.2499V0.749872C2.23132e-05 0.619544 0.0340055 0.491471 0.0986001 0.378277C0.163195 0.265083 0.256171 0.170674 0.368365 0.104357C0.480559 0.0380404 0.608097 0.00210363 0.73841 8.95819e-05C0.868722 -0.00192447 0.99731 0.0300537 1.1115 0.0928718L16.1115 8.34287C16.2291 8.40761 16.3271 8.50273 16.3954 8.6183C16.4637 8.73386 16.4998 8.86564 16.4998 8.99987C16.4998 9.13411 16.4637 9.26588 16.3954 9.38145C16.3271 9.49701 16.2291 9.59213 16.1115 9.65687L1.1115 17.9069C1.00076 17.9678 0.876412 17.9998 0.75 17.9999Z" fill="black" fill-opacity="0.8"/>
</svg>
