<svg width="185" height="32" viewBox="0 0 185 32" fill="none" xmlns="http://www.w3.org/2000/svg">
<path d="M25.5938 11.2422C25.5938 11.4922 25.5469 11.75 25.4531 12.0156C25.375 12.2812 25.2734 12.5234 25.1484 12.7422C24.9453 12.7734 24.7578 12.8438 24.5859 12.9531C24.4297 13.0625 24.3047 13.1328 24.2109 13.1641C24.0078 13.1953 23.7656 13.2109 23.4844 13.2109C23.2188 13.1953 22.9766 13.1953 22.7578 13.2109C22.3359 13.2422 21.9141 13.2891 21.4922 13.3516C21.0859 13.4141 20.6797 13.4922 20.2734 13.5859C20.2422 13.5859 20.2109 13.5938 20.1797 13.6094C20.1484 13.6094 20.1328 13.625 20.1328 13.6562C20.1328 13.6875 20.1406 13.7188 20.1562 13.75C20.1719 13.7812 20.1797 13.8125 20.1797 13.8438C20.1797 13.8906 20.1328 13.9141 20.0391 13.9141C19.8672 13.9141 19.75 13.8594 19.6875 13.75C19.1875 13.875 18.6875 14.0078 18.1875 14.1484C17.6875 14.2734 17.1875 14.3984 16.6875 14.5234C16.4375 14.5703 16.1875 14.6172 15.9375 14.6641C15.7031 14.7109 15.4609 14.7734 15.2109 14.8516C15.0859 14.8828 14.9609 14.9375 14.8359 15.0156L14.4609 15.25C14.3828 15.2344 14.3125 15.2266 14.25 15.2266C14.1875 15.2109 14.125 15.2031 14.0625 15.2031C13.7969 15.2031 13.5156 15.2578 13.2188 15.3672C12.9219 15.4609 12.6641 15.5938 12.4453 15.7656H12.2812C12.125 15.7656 12.0156 15.7422 11.9531 15.6953C11.8125 15.6797 11.7266 15.7266 11.6953 15.8359C11.6641 15.9297 11.6094 16.0156 11.5312 16.0938C11 16.1406 10.4766 16.2344 9.96094 16.375C9.44531 16.5156 8.9375 16.6719 8.4375 16.8438C7.9375 17 7.42969 17.1641 6.91406 17.3359C6.41406 17.4922 5.90625 17.6172 5.39062 17.7109C5.32812 18.0234 5.29688 18.3828 5.29688 18.7891C5.29688 19.1016 5.32031 19.4609 5.36719 19.8672C5.42969 20.2734 5.55469 20.6172 5.74219 20.8984V20.9453C5.74219 21.0234 5.71094 21.0781 5.64844 21.1094C5.58594 21.1406 5.55469 21.1953 5.55469 21.2734C5.55469 21.6797 5.59375 22.0625 5.67188 22.4219C5.76562 22.7812 5.85938 23.1328 5.95312 23.4766C6.04688 23.8203 6.13281 24.1641 6.21094 24.5078C6.30469 24.8516 6.35156 25.2031 6.35156 25.5625C6.35156 25.6562 6.34375 25.7422 6.32812 25.8203C6.32812 25.9141 6.32031 26.0078 6.30469 26.1016C6.35156 26.2422 6.42969 26.3594 6.53906 26.4531C6.64844 26.5469 6.74219 26.6562 6.82031 26.7812C6.83594 26.8594 6.84375 26.9297 6.84375 26.9922V27.2266C6.84375 27.4922 6.8125 27.7266 6.75 27.9297C6.6875 28.1328 6.60938 28.3203 6.51562 28.4922C6.42188 28.6797 6.32031 28.8594 6.21094 29.0312C6.10156 29.2188 6 29.4219 5.90625 29.6406C5.75 29.6719 5.625 29.6875 5.53125 29.6875C5.29688 29.6875 5.10156 29.625 4.94531 29.5C4.80469 29.375 4.67969 29.2188 4.57031 29.0312C4.46094 28.8594 4.35156 28.6797 4.24219 28.4922C4.14844 28.3047 4.03125 28.1484 3.89062 28.0234C3.90625 27.9453 3.91406 27.875 3.91406 27.8125C3.92969 27.75 3.9375 27.6797 3.9375 27.6016C3.9375 27.2891 3.88281 26.9844 3.77344 26.6875C3.67969 26.3906 3.57031 26.1094 3.44531 25.8438C3.42969 25.3125 3.375 24.7891 3.28125 24.2734C3.1875 23.7578 3.05469 23.25 2.88281 22.75C2.91406 22.5625 2.9375 22.3828 2.95312 22.2109C2.96875 22.0234 2.97656 21.8438 2.97656 21.6719C2.97656 21.2188 2.95312 20.7656 2.90625 20.3125C2.85938 19.8594 2.85156 19.4062 2.88281 18.9531C2.83594 18.875 2.78906 18.8125 2.74219 18.7656C2.69531 18.7031 2.65625 18.6328 2.625 18.5547H2.53125C2.29688 18.5547 2.07031 18.5781 1.85156 18.625C1.63281 18.6562 1.41406 18.6719 1.19531 18.6719C1.11719 18.6719 1.04688 18.6719 0.984375 18.6719C0.921875 18.6562 0.851562 18.6406 0.773438 18.625C0.601562 18.4531 0.46875 18.2578 0.375 18.0391C0.28125 17.8203 0.234375 17.5938 0.234375 17.3594C0.234375 17.0156 0.328125 16.7031 0.515625 16.4219C0.90625 16.3281 1.28906 16.2188 1.66406 16.0938C2.05469 15.9531 2.42969 15.7891 2.78906 15.6016C2.83594 15.3672 2.85938 15.1328 2.85938 14.8984C2.875 14.6641 2.96094 14.4453 3.11719 14.2422C3.07031 14.1172 2.99219 14.0078 2.88281 13.9141C2.78906 13.8047 2.74219 13.6797 2.74219 13.5391C2.74219 13.4609 2.75781 13.3594 2.78906 13.2344C2.94531 13.0625 3.05469 12.8438 3.11719 12.5781C3.17969 12.3125 3.23438 12.0312 3.28125 11.7344C3.32812 11.4375 3.375 11.1406 3.42188 10.8438C3.48438 10.5469 3.58594 10.2812 3.72656 10.0469C3.69531 9.92188 3.67188 9.78906 3.65625 9.64844C3.64062 9.49219 3.63281 9.35156 3.63281 9.22656C3.63281 9.03906 3.64062 8.85156 3.65625 8.66406C3.6875 8.46094 3.73438 8.27344 3.79688 8.10156C3.625 7.89844 3.48438 7.66406 3.375 7.39844C3.26562 7.11719 3.21094 6.84375 3.21094 6.57812C3.21094 6.0625 3.46094 5.73438 3.96094 5.59375C3.94531 5.53125 3.92969 5.47656 3.91406 5.42969C3.91406 5.38281 3.91406 5.33594 3.91406 5.28906C3.91406 5.14844 3.95312 5.01563 4.03125 4.89062C4.10938 4.76562 4.17188 4.64063 4.21875 4.51562C4.14062 4.3125 4.10156 4.14062 4.10156 4C4.10156 3.875 4.125 3.76562 4.17188 3.67188C4.21875 3.5625 4.25781 3.44531 4.28906 3.32031C4.33594 3.16406 4.36719 3.02344 4.38281 2.89844C4.41406 2.77344 4.46094 2.66406 4.52344 2.57031C4.58594 2.47656 4.66406 2.40625 4.75781 2.35938C4.86719 2.3125 5.03125 2.28906 5.25 2.28906C5.59375 2.28906 5.92188 2.39844 6.23438 2.61719C6.5625 2.82031 6.8125 3.05469 6.98438 3.32031C7.15625 3.30469 7.30469 3.27344 7.42969 3.22656C7.57031 3.16406 7.69531 3.10938 7.80469 3.0625C7.92969 3.01562 8.05469 2.97656 8.17969 2.94531C8.32031 2.89844 8.48438 2.88281 8.67188 2.89844C8.71875 2.78906 8.79688 2.71875 8.90625 2.6875C9.03125 2.64062 9.15625 2.60937 9.28125 2.59375C9.40625 2.5625 9.52344 2.52344 9.63281 2.47656C9.74219 2.42969 9.8125 2.34375 9.84375 2.21875C9.90625 2.26562 9.97656 2.28906 10.0547 2.28906C10.1328 2.28906 10.2109 2.28125 10.2891 2.26562C10.3672 2.23437 10.4531 2.21875 10.5469 2.21875C10.6406 2.21875 10.7188 2.25 10.7812 2.3125C11.1875 2.09375 11.6172 1.9375 12.0703 1.84375C12.5391 1.73438 13 1.67187 13.4531 1.65625C14.5312 1.0625 15.6641 0.65625 16.8516 0.4375C18.0547 0.21875 19.2578 0.109375 20.4609 0.109375C20.6328 0.109375 20.7969 0.109375 20.9531 0.109375C21.125 0.09375 21.2891 0.101563 21.4453 0.132812C21.6172 0.164062 21.8047 0.21875 22.0078 0.296875C22.2266 0.375 22.4375 0.46875 22.6406 0.578125C22.8594 0.6875 23.0625 0.8125 23.25 0.953125C23.4375 1.07813 23.5938 1.19531 23.7188 1.30469C23.8438 1.58594 23.9062 1.85937 23.9062 2.125C23.9062 2.25 23.8984 2.375 23.8828 2.5C23.8672 2.60937 23.8594 2.72656 23.8594 2.85156C23.8594 3.03906 23.8984 3.25 23.9766 3.48438C23.9297 3.46875 23.8516 3.46094 23.7422 3.46094C23.6016 3.46094 23.4844 3.49219 23.3906 3.55469C23.2969 3.61719 23.2109 3.6875 23.1328 3.76562C23.0547 3.84375 22.9766 3.91406 22.8984 3.97656C22.8359 4.03906 22.7734 4.07031 22.7109 4.07031C22.5859 4.07031 22.4766 4.04688 22.3828 4C22.3047 3.95312 22.2188 3.90625 22.125 3.85938C22.0469 3.79688 21.9609 3.75 21.8672 3.71875C21.7734 3.67188 21.6641 3.65625 21.5391 3.67188V3.57812C21.5391 3.40625 21.4844 3.29688 21.375 3.25C21.2656 3.1875 21.1797 3.10156 21.1172 2.99219C20.8828 2.97656 20.6484 2.94531 20.4141 2.89844C20.1953 2.85156 19.9688 2.82812 19.7344 2.82812C19.4219 2.82812 19.1797 2.9375 19.0078 3.15625C18.9297 3.125 18.8594 3.08594 18.7969 3.03906C18.75 2.99219 18.6797 2.97656 18.5859 2.99219H18.5156C17.6719 2.99219 16.8438 3.08594 16.0312 3.27344C15.2188 3.44531 14.4141 3.66406 13.6172 3.92969C12.8203 4.17969 12.0234 4.45313 11.2266 4.75C10.4297 5.04687 9.63281 5.30469 8.83594 5.52344C8.64844 5.77344 8.45312 5.96094 8.25 6.08594C8.04688 6.19531 7.84375 6.28906 7.64062 6.36719C7.45312 6.44531 7.26562 6.52344 7.07812 6.60156C6.89062 6.67969 6.72656 6.80469 6.58594 6.97656C6.46094 7.14844 6.35938 7.39062 6.28125 7.70312C6.21875 8 6.20312 8.41406 6.23438 8.94531C6.15625 9.03906 6.10938 9.14062 6.09375 9.25C6.07812 9.35938 6.0625 9.46875 6.04688 9.57812C6.03125 9.67188 6.00781 9.76562 5.97656 9.85938C5.94531 9.95312 5.89062 10.0391 5.8125 10.1172C5.84375 10.2734 5.86719 10.4297 5.88281 10.5859C5.89844 10.7422 5.90625 10.8984 5.90625 11.0547C5.90625 11.7109 5.79688 12.3516 5.57812 12.9766C5.65625 13.1016 5.69531 13.2422 5.69531 13.3984C5.69531 13.5703 5.67188 13.7266 5.625 13.8672C5.57812 14.0078 5.55469 14.1641 5.55469 14.3359C5.55469 14.5078 5.58594 14.6484 5.64844 14.7578C5.74219 14.7578 5.79688 14.7891 5.8125 14.8516H5.95312C6.23438 14.8516 6.47656 14.7812 6.67969 14.6406C6.88281 14.5 7.10156 14.4297 7.33594 14.4297C7.38281 14.4297 7.4375 14.4453 7.5 14.4766C7.5625 14.5078 7.61719 14.5234 7.66406 14.5234C7.77344 14.5234 7.82031 14.4844 7.80469 14.4062C7.78906 14.3281 7.82812 14.2734 7.92188 14.2422L8.76562 14.1016C9.29688 14.0078 9.79688 13.8984 10.2656 13.7734C10.75 13.6328 11.2266 13.4297 11.6953 13.1641C11.8047 13.2109 11.9297 13.2344 12.0703 13.2344C12.1953 13.2344 12.3281 13.2188 12.4688 13.1875C12.6094 13.1406 12.7422 13.1172 12.8672 13.1172C12.9766 13.1172 13.0625 13.1328 13.125 13.1641C13.2188 13.1016 13.3359 13.0547 13.4766 13.0234C13.6172 12.9766 13.6953 12.8828 13.7109 12.7422H13.7578C13.8203 12.7422 13.8672 12.7578 13.8984 12.7891C13.9297 12.8203 13.9766 12.8359 14.0391 12.8359H14.1328C14.4609 12.6797 14.7578 12.5625 15.0234 12.4844C15.4609 12.375 15.9297 12.2812 16.4297 12.2031C16.9297 12.1094 17.375 11.9531 17.7656 11.7344C18.2188 11.7344 18.6562 11.6641 19.0781 11.5234C19.5156 11.3672 19.9531 11.2891 20.3906 11.2891C20.5938 11.2891 20.7812 11.3203 20.9531 11.3828C21.1094 11.2734 21.2891 11.1953 21.4922 11.1484C21.7109 11.1016 21.8906 11.0156 22.0312 10.8906C22.125 10.9062 22.2188 10.9219 22.3125 10.9375C22.4219 10.9375 22.5312 10.9375 22.6406 10.9375C23.1094 10.9375 23.5547 10.875 23.9766 10.75C24.4141 10.6094 24.8594 10.5078 25.3125 10.4453C25.4219 10.5703 25.4922 10.7031 25.5234 10.8438C25.5703 10.9688 25.5938 11.1016 25.5938 11.2422ZM51.5391 20.9219C51.5078 21.1562 51.4219 21.3359 51.2812 21.4609C51.1562 21.5859 51.0078 21.7031 50.8359 21.8125C50.7578 21.7969 50.6797 21.7891 50.6016 21.7891C50.5391 21.7734 50.4688 21.7656 50.3906 21.7656C49.9062 21.75 49.4453 21.8125 49.0078 21.9531C48.5859 22.0938 48.1484 22.1953 47.6953 22.2578C47.5391 22.2891 47.3906 22.3047 47.25 22.3047C47.125 22.2891 46.9922 22.2969 46.8516 22.3281C46.3516 22.4062 45.8203 22.4688 45.2578 22.5156C44.6953 22.5625 44.1328 22.625 43.5703 22.7031C43.0078 22.7656 42.4531 22.8516 41.9062 22.9609C41.375 23.0547 40.875 23.1953 40.4062 23.3828C40.3594 23.3516 40.3125 23.3203 40.2656 23.2891C40.2188 23.2422 40.1641 23.2188 40.1016 23.2188C39.9453 23.2188 39.7969 23.2422 39.6562 23.2891C39.5156 23.3359 39.375 23.3516 39.2344 23.3359C39.0781 23.4297 38.9062 23.5 38.7188 23.5469C38.5469 23.5781 38.3672 23.6094 38.1797 23.6406C38.0078 23.6562 37.8359 23.6875 37.6641 23.7344C37.4922 23.7812 37.3281 23.8672 37.1719 23.9922C37.0469 23.9297 36.8906 23.8984 36.7031 23.8984C36.5312 23.8828 36.4141 23.8203 36.3516 23.7109C35.9922 23.8828 35.6094 23.9922 35.2031 24.0391C34.8125 24.0859 34.4141 24.1016 34.0078 24.0859C33.7422 24.0703 33.4375 24.0312 33.0938 23.9688C32.75 23.9062 32.4062 23.8203 32.0625 23.7109C31.7188 23.5859 31.3984 23.4453 31.1016 23.2891C30.8047 23.1172 30.5781 22.9141 30.4219 22.6797C30.3125 22.5234 30.2344 22.3516 30.1875 22.1641C30.1406 21.9766 30.0312 21.8359 29.8594 21.7422C29.9062 21.3828 29.9609 21.0312 30.0234 20.6875C30.0859 20.3438 30.1484 19.9922 30.2109 19.6328C30.5234 19.3672 30.8203 19.0859 31.1016 18.7891C31.3828 18.4922 31.6484 18.1797 31.8984 17.8516C32.1953 17.7109 32.4688 17.5391 32.7188 17.3359C32.9844 17.1328 33.2422 16.9297 33.4922 16.7266C33.7578 16.5078 34.0156 16.2969 34.2656 16.0938C34.5312 15.8906 34.8125 15.7109 35.1094 15.5547C35.1562 15.4453 35.2188 15.3594 35.2969 15.2969C35.3906 15.2188 35.4844 15.1484 35.5781 15.0859C35.6719 15.0078 35.7578 14.9297 35.8359 14.8516C35.9141 14.7578 35.9688 14.6484 36 14.5234C36.5469 14.1953 37.0234 13.7812 37.4297 13.2812C37.8359 12.7812 38.1016 12.2188 38.2266 11.5938C37.9609 11.375 37.6562 11.2344 37.3125 11.1719C36.9844 11.0938 36.6406 11.0391 36.2812 11.0078C35.9688 10.9922 35.6406 10.9922 35.2969 11.0078C34.9688 11.0234 34.6328 11.0156 34.2891 10.9844C33.9453 11.0938 33.5859 11.1641 33.2109 11.1953C32.8516 11.2266 32.4922 11.2578 32.1328 11.2891C31.7734 11.3047 31.4141 11.3516 31.0547 11.4297C30.7109 11.4922 30.375 11.6172 30.0469 11.8047C29.9844 11.8047 29.9219 11.7969 29.8594 11.7812C29.8125 11.7656 29.7578 11.7578 29.6953 11.7578C29.1953 11.7422 28.7266 11.8438 28.2891 12.0625C27.8516 12.2656 27.4219 12.4688 27 12.6719C26.9688 12.7344 26.9531 12.7812 26.9531 12.8125C26.9531 12.9062 26.9688 13 27 13.0938C27.0469 13.1719 27.0703 13.2578 27.0703 13.3516C27.0547 13.3672 27.0469 13.3828 27.0469 13.3984C27.0469 13.4141 27.0391 13.4297 27.0234 13.4453C27.0078 13.5234 26.9844 13.5938 26.9531 13.6562C26.9375 13.7188 26.9141 13.7891 26.8828 13.8672C26.7109 14.3672 26.6172 14.8594 26.6016 15.3438C26.5859 15.75 26.5859 16.1484 26.6016 16.5391C26.6172 16.9297 26.6172 17.3281 26.6016 17.7344C26.5703 18.2344 26.4922 18.7031 26.3672 19.1406C26.4453 19.5156 26.5156 19.9141 26.5781 20.3359C26.6406 20.7422 26.7188 21.1484 26.8125 21.5547C26.9062 21.9609 27.0156 22.3594 27.1406 22.75C27.2812 23.125 27.4609 23.4844 27.6797 23.8281C27.6641 23.8594 27.6719 23.8828 27.7031 23.8984C27.7344 23.9141 27.7656 23.9219 27.7969 23.9219H27.9844C28.0625 23.9219 28.0938 23.9531 28.0781 24.0156C28.1094 24.0625 28.1328 24.1094 28.1484 24.1562C28.1641 24.1875 28.1953 24.2188 28.2422 24.25C28.2734 24.2969 28.2734 24.3594 28.2422 24.4375C28.2266 24.75 28.1484 25.0391 28.0078 25.3047C27.8672 25.5703 27.7812 25.8594 27.75 26.1719C27.5625 26.2188 27.3906 26.2422 27.2344 26.2422C26.9688 26.2266 26.7344 26.1484 26.5312 26.0078C26.3281 25.8828 26.1406 25.7266 25.9688 25.5391C25.7969 25.3516 25.6328 25.1641 25.4766 24.9766C25.3203 24.7734 25.1484 24.6016 24.9609 24.4609C24.8516 24.0234 24.7422 23.5391 24.6328 23.0078C24.5391 22.4766 24.375 22.0234 24.1406 21.6484C24.2031 21.5078 24.2344 21.3359 24.2344 21.1328C24.25 20.8203 24.2188 20.5156 24.1406 20.2188C24.0781 19.9062 24.0625 19.5938 24.0938 19.2812C24.0938 19.1094 24.1094 18.9375 24.1406 18.7656C24.1875 18.5938 24.2188 18.4219 24.2344 18.25C24.25 17.9844 24.2188 17.7266 24.1406 17.4766C24.0781 17.2266 24.0547 16.9688 24.0703 16.7031C24.0859 16.5781 24.1094 16.4609 24.1406 16.3516C24.1875 16.2266 24.25 16.1172 24.3281 16.0234C24.25 15.8359 24.2266 15.6562 24.2578 15.4844C24.2734 15.2188 24.3047 14.9688 24.3516 14.7344C24.3984 14.5 24.4297 14.2656 24.4453 14.0312C24.4453 13.9062 24.4375 13.7891 24.4219 13.6797C24.4062 13.5547 24.3828 13.4375 24.3516 13.3281L24.1406 13.2578C24.0469 13.2578 23.9531 13.2812 23.8594 13.3281C23.7812 13.375 23.7109 13.4297 23.6484 13.4922C23.5859 13.5547 23.5312 13.6094 23.4844 13.6562C23.4375 13.6875 23.3906 13.7031 23.3438 13.7031C23.3125 13.7031 23.2734 13.7031 23.2266 13.7031C23.1953 13.6875 23.1641 13.6797 23.1328 13.6797C23.1016 13.6797 23.0391 13.7109 22.9453 13.7734C22.8672 13.8359 22.7656 13.9062 22.6406 13.9844C22.5312 14.0469 22.4219 14.1172 22.3125 14.1953C22.2031 14.2578 22.1172 14.2969 22.0547 14.3125C21.8828 14.2812 21.7422 14.2266 21.6328 14.1484C21.5391 14.0547 21.4453 13.9688 21.3516 13.8906C21.2734 13.7969 21.1875 13.7188 21.0938 13.6562C21 13.5781 20.8828 13.5469 20.7422 13.5625C20.6953 13.4688 20.6719 13.3672 20.6719 13.2578C20.6562 13.1484 20.6562 13.0391 20.6719 12.9297V12.5547C20.7812 12.3516 20.9297 12.1875 21.1172 12.0625C21.2891 11.9219 21.4766 11.8047 21.6797 11.7109L22.2891 11.4297C22.4922 11.3359 22.6797 11.2188 22.8516 11.0781H23.0625C23.3438 11.0938 23.5859 11.0391 23.7891 10.9141C24.0078 10.7891 24.2109 10.6484 24.3984 10.4922C24.5859 10.3203 24.7734 10.1484 24.9609 9.97656C25.1641 9.80469 25.3828 9.67188 25.6172 9.57812C25.7891 9.65625 25.9688 9.72656 26.1562 9.78906C26.3438 9.83594 26.5391 9.86719 26.7422 9.88281C26.9453 9.88281 27.1562 9.85156 27.375 9.78906C27.5938 9.72656 27.7656 9.60938 27.8906 9.4375C27.9688 9.46875 28.0312 9.49219 28.0781 9.50781C28.1406 9.50781 28.2109 9.50781 28.2891 9.50781C28.5234 9.52344 28.7578 9.49219 28.9922 9.41406C29.2266 9.32031 29.4531 9.21094 29.6719 9.08594C29.9844 9.10156 30.2891 9.08594 30.5859 9.03906C30.8984 8.97656 31.2031 8.91406 31.5 8.85156C31.8125 8.78906 32.1172 8.73438 32.4141 8.6875C32.7266 8.625 33.0391 8.60156 33.3516 8.61719C33.8672 8.63281 34.375 8.58594 34.875 8.47656C35.375 8.36719 35.8828 8.32812 36.3984 8.35938C36.7578 8.375 37.1094 8.40625 37.4531 8.45312C37.8125 8.48438 38.1719 8.49219 38.5312 8.47656C38.7344 8.57031 38.9141 8.65625 39.0703 8.73438C39.2422 8.79688 39.4531 8.8125 39.7031 8.78125C40.2031 9.20312 40.6562 9.69531 41.0625 10.2578V10.6562C41.0469 11.0156 40.9844 11.3672 40.875 11.7109C40.7656 12.0547 40.6328 12.3984 40.4766 12.7422C40.3359 13.0703 40.1797 13.3984 40.0078 13.7266C39.8359 14.0391 39.6719 14.3516 39.5156 14.6641C38.5 15.5859 37.4844 16.5 36.4688 17.4062C35.4531 18.3125 34.4062 19.1875 33.3281 20.0312C33.2969 20.1875 33.25 20.3281 33.1875 20.4531C33.1406 20.5781 33.1094 20.7109 33.0938 20.8516C33.0938 20.9297 33.1016 20.9922 33.1172 21.0391C33.2266 21.0703 33.3203 21.1328 33.3984 21.2266C33.4922 21.3047 33.5234 21.4141 33.4922 21.5547H33.7031C33.7812 21.5547 33.8203 21.5859 33.8203 21.6484L34.1953 21.6719C34.7891 21.7031 35.3828 21.6875 35.9766 21.625C36.5703 21.5625 37.1641 21.4922 37.7578 21.4141C38.3672 21.3359 38.9688 21.2656 39.5625 21.2031C40.1562 21.125 40.75 21.0781 41.3438 21.0625C41.4844 21.0156 41.6328 20.9766 41.7891 20.9453C41.9453 20.9141 42.0859 20.8516 42.2109 20.7578H42.2812C42.3906 20.7578 42.4688 20.7891 42.5156 20.8516C42.5781 20.9141 42.6641 20.9531 42.7734 20.9688C42.8516 20.9688 42.9297 20.9531 43.0078 20.9219C43.1016 20.8906 43.1953 20.8672 43.2891 20.8516C43.5078 20.7891 43.7344 20.75 43.9688 20.7344C44.2188 20.7188 44.4609 20.6953 44.6953 20.6641C45.6016 20.5859 46.5 20.5391 47.3906 20.5234C48.2812 20.4922 49.1719 20.375 50.0625 20.1719C50.1406 20.2812 50.25 20.3594 50.3906 20.4062C50.5312 20.4375 50.6797 20.4766 50.8359 20.5234C50.9922 20.5547 51.1328 20.5938 51.2578 20.6406C51.3984 20.6875 51.4922 20.7812 51.5391 20.9219ZM59.7188 10.0938V10.1875C59.6094 10.2188 59.5547 10.2969 59.5547 10.4219C59.3828 10.5 59.2031 10.5625 59.0156 10.6094C58.8281 10.6406 58.6484 10.6953 58.4766 10.7734C58.3047 10.7578 58.125 10.75 57.9375 10.75C57.7656 10.7344 57.5938 10.7266 57.4219 10.7266C56.9531 10.7266 56.4844 10.7422 56.0156 10.7734C55.5469 10.8047 55.0781 10.8047 54.6094 10.7734C54.3906 10.8984 54.1484 11 53.8828 11.0781C53.6328 11.1406 53.3906 11.1719 53.1562 11.1719C52.9688 11.1719 52.8047 11.1484 52.6641 11.1016C52.2891 11.2891 51.875 11.4453 51.4219 11.5703C50.9844 11.6953 50.5391 11.8203 50.0859 11.9453C49.6328 12.0547 49.1953 12.1875 48.7734 12.3438C48.3672 12.4844 48.0078 12.6875 47.6953 12.9531C47.6641 13.1719 47.6406 13.3906 47.625 13.6094C47.6094 13.8125 47.6016 14.0156 47.6016 14.2188C47.6016 14.4375 47.6094 14.6406 47.625 14.8281C47.6562 15.0156 47.7109 15.2031 47.7891 15.3906C47.8672 15.4219 47.9531 15.4453 48.0469 15.4609C48.1562 15.4766 48.25 15.4844 48.3281 15.4844C48.4062 15.4844 48.4844 15.4766 48.5625 15.4609C48.6406 15.4297 48.6953 15.375 48.7266 15.2969C48.9609 15.2656 49.1953 15.2578 49.4297 15.2734C49.6641 15.2734 49.8984 15.2734 50.1328 15.2734C50.3672 15.2734 50.5938 15.2656 50.8125 15.25C51.0469 15.2344 51.2734 15.1953 51.4922 15.1328C51.7422 15.0703 51.9844 15.0312 52.2188 15.0156C52.4688 15 52.7109 14.9844 52.9453 14.9688C53.1797 14.9531 53.4219 14.9297 53.6719 14.8984C53.9219 14.8516 54.1797 14.7656 54.4453 14.6406C54.6484 14.7188 54.8516 14.7578 55.0547 14.7578C55.2734 14.7578 55.4844 14.7734 55.6875 14.8047C55.7969 14.8828 55.8828 14.9688 55.9453 15.0625C56.0234 15.1562 56.0625 15.2656 56.0625 15.3906C56.0625 15.6094 55.9844 15.8281 55.8281 16.0469C55.6719 16.2656 55.5469 16.4688 55.4531 16.6562H55.1953C54.8203 16.6562 54.4531 16.7109 54.0938 16.8203C53.75 16.9141 53.3984 17.0312 53.0391 17.1719C52.6953 17.2969 52.3438 17.4141 51.9844 17.5234C51.6406 17.6172 51.2812 17.6641 50.9062 17.6641C50.8438 17.6641 50.8047 17.7031 50.7891 17.7812C50.7891 17.8438 50.7734 17.8906 50.7422 17.9219C50.6641 17.9062 50.5469 17.8984 50.3906 17.8984C50.0312 17.8984 49.6875 17.9375 49.3594 18.0156C49.0312 18.0938 48.6953 18.1328 48.3516 18.1328C48.2578 18.1328 48.1641 18.1328 48.0703 18.1328C47.9766 18.1172 47.8828 18.1016 47.7891 18.0859C47.7109 18.2109 47.6094 18.2969 47.4844 18.3438C47.3594 18.375 47.2422 18.4375 47.1328 18.5312C47.0859 18.6719 47.0547 18.8438 47.0391 19.0469C47.0391 19.25 47.0312 19.4609 47.0156 19.6797C47.0156 19.8828 47 20.0781 46.9688 20.2656C46.9375 20.4531 46.875 20.6016 46.7812 20.7109C46.7969 20.7891 46.8594 20.8203 46.9688 20.8047C47.0781 20.7734 47.1328 20.8203 47.1328 20.9453C47.1328 21.0859 47.1172 21.2344 47.0859 21.3906C47.0547 21.5469 47.0391 21.7031 47.0391 21.8594C47.0391 22.1562 47.0703 22.4844 47.1328 22.8438C47.2109 23.1875 47.3203 23.5078 47.4609 23.8047C47.6172 24.1016 47.8203 24.3516 48.0703 24.5547C48.3203 24.7422 48.6328 24.8359 49.0078 24.8359C49.2578 24.8359 49.4922 24.7891 49.7109 24.6953C49.9297 24.6016 50.1094 24.4453 50.25 24.2266L50.3672 24.2031C50.4297 24.2031 50.4844 24.2109 50.5312 24.2266C50.5938 24.2422 50.6562 24.25 50.7188 24.25C50.8125 24.25 50.9297 24.1953 51.0703 24.0859C51.2266 23.9609 51.3906 23.8203 51.5625 23.6641C51.75 23.5078 51.9375 23.3594 52.125 23.2188C52.3125 23.0625 52.4922 22.9531 52.6641 22.8906C52.7734 22.6719 52.875 22.4531 52.9688 22.2344C53.0781 22.0156 53.2344 21.8438 53.4375 21.7188V21.0391C53.5938 20.8672 53.7578 20.7109 53.9297 20.5703C54.1172 20.4297 54.2578 20.25 54.3516 20.0312C54.4297 20.0625 54.5 20.0859 54.5625 20.1016C54.6406 20.1172 54.7188 20.125 54.7969 20.125C54.875 20.125 54.9531 20.1172 55.0312 20.1016C55.125 20.0859 55.2109 20.0625 55.2891 20.0312C55.4141 20.2031 55.5078 20.3984 55.5703 20.6172C55.6484 20.8203 55.7422 21.0156 55.8516 21.2031C55.7109 21.4844 55.5469 21.8203 55.3594 22.2109C55.1719 22.6016 54.9688 22.9922 54.75 23.3828C54.5312 23.7734 54.2969 24.1484 54.0469 24.5078C53.8125 24.8516 53.5781 25.1172 53.3438 25.3047C53.2969 25.3516 53.1953 25.4062 53.0391 25.4688C52.8672 25.5938 52.7109 25.7109 52.5703 25.8203C52.4297 25.9453 52.2969 26.0859 52.1719 26.2422C51.7188 26.3828 51.2812 26.5703 50.8594 26.8047C50.4531 27.0391 50.0469 27.2656 49.6406 27.4844C49.4531 27.4375 49.25 27.4141 49.0312 27.4141C48.8438 27.4141 48.6562 27.4219 48.4688 27.4375C48.2812 27.4688 48.0781 27.4844 47.8594 27.4844C47.7969 27.4062 47.7031 27.3516 47.5781 27.3203C47.4688 27.3047 47.4297 27.2266 47.4609 27.0859C46.9297 27.0547 46.5 26.9062 46.1719 26.6406C45.8438 26.3906 45.5625 26.0781 45.3281 25.7031C45.1094 25.3281 44.9297 24.9219 44.7891 24.4844C44.6484 24.0469 44.5 23.625 44.3438 23.2188V23.1484C44.3438 23.0703 44.375 23.0234 44.4375 23.0078C44.5 22.9922 44.5312 22.9453 44.5312 22.8672C44.5312 22.8359 44.5234 22.8125 44.5078 22.7969C44.4609 22.625 44.4219 22.4766 44.3906 22.3516C44.3594 22.2266 44.3438 22.0781 44.3438 21.9062C44.3438 21.6562 44.3594 21.4141 44.3906 21.1797C44.4219 20.9297 44.4375 20.6797 44.4375 20.4297C44.4375 20.1797 44.4062 19.9609 44.3438 19.7734C44.4062 19.6953 44.4609 19.5938 44.5078 19.4688C44.5391 19.3281 44.5625 19.1875 44.5781 19.0469C44.5938 18.9062 44.6016 18.7656 44.6016 18.625C44.6172 18.4844 44.6406 18.3594 44.6719 18.25C44.6094 18.0781 44.5547 17.9297 44.5078 17.8047C44.4609 17.6641 44.4375 17.5 44.4375 17.3125V17.1484C44.5938 16.8828 44.7266 16.6094 44.8359 16.3281C44.9453 16.0469 45.0625 15.7578 45.1875 15.4609V15.3906C45.1875 14.9375 45.1719 14.4844 45.1406 14.0312C45.1094 13.5781 45.0938 13.125 45.0938 12.6719V12.2266C45.0938 12.0703 45.1016 11.9219 45.1172 11.7812C45.2422 11.7188 45.3359 11.6328 45.3984 11.5234C45.4609 11.4141 45.5547 11.3281 45.6797 11.2656H46.4531L46.5938 11.0312C46.6406 10.9531 46.6719 10.8672 46.6875 10.7734C46.8594 10.7266 47.0234 10.6641 47.1797 10.5859C47.3516 10.4922 47.5078 10.3984 47.6484 10.3047C47.8672 10.1797 48.0625 10.0703 48.2344 9.97656C48.4219 9.86719 48.6016 9.78125 48.7734 9.71875C48.9609 9.64062 49.1562 9.57812 49.3594 9.53125C49.5625 9.48438 49.7969 9.44531 50.0625 9.41406C50.1875 9.41406 50.2656 9.39062 50.2969 9.34375C50.3438 9.29688 50.4062 9.24219 50.4844 9.17969C50.6719 9.21094 50.8594 9.24219 51.0469 9.27344C51.2344 9.28906 51.4219 9.29688 51.6094 9.29688C51.9844 9.29688 52.3359 9.22656 52.6641 9.08594C53.1328 9.08594 53.5938 9.07812 54.0469 9.0625C54.5156 9.04688 54.9844 9.03906 55.4531 9.03906C55.8594 9.03906 56.2656 9.05469 56.6719 9.08594C57.0781 9.11719 57.4766 9.17188 57.8672 9.25C58.0078 9.20312 58.1641 9.17969 58.3359 9.17969C58.5234 9.17969 58.7109 9.20312 58.8984 9.25C59.1016 9.28125 59.2969 9.28125 59.4844 9.25C59.5 9.42188 59.5391 9.57031 59.6016 9.69531C59.6797 9.80469 59.7188 9.9375 59.7188 10.0938ZM70.9922 22.0469C70.9922 22.3125 70.9219 22.5469 70.7812 22.75C70.6562 22.9375 70.6094 23.1719 70.6406 23.4531C70.4219 23.5781 70.2422 23.7422 70.1016 23.9453C69.9609 24.1484 69.8281 24.3594 69.7031 24.5781C68.6719 25.25 67.5625 25.7891 66.375 26.1953C65.2031 26.6172 63.9922 26.8281 62.7422 26.8281C62.6641 26.8281 62.5938 26.7891 62.5312 26.7109C62.4688 26.6484 62.4062 26.5781 62.3438 26.5C62.2812 26.4219 62.2109 26.3438 62.1328 26.2656C62.0703 26.2031 61.9922 26.1719 61.8984 26.1719C61.7891 26.1719 61.7031 26.1953 61.6406 26.2422C61.6406 26.2109 61.6406 26.1797 61.6406 26.1484C61.6562 26.1328 61.6641 26.1094 61.6641 26.0781C61.6641 25.8906 61.6406 25.6953 61.5938 25.4922C61.5469 25.3047 61.5234 25.1172 61.5234 24.9297C61.5234 24.7109 61.5625 24.5312 61.6406 24.3906H61.9219C62.0781 24.3906 62.2266 24.3828 62.3672 24.3672C62.5234 24.3359 62.6875 24.3203 62.8594 24.3203C63.0312 24.3203 63.1875 24.3672 63.3281 24.4609C64.1875 24.4297 65 24.2734 65.7656 23.9922C66.5469 23.6953 67.3359 23.4062 68.1328 23.125C68.2578 22.9531 68.3281 22.7656 68.3438 22.5625C68.375 22.3438 68.4375 22.1406 68.5312 21.9531C68.125 21.6094 67.7109 21.3438 67.2891 21.1562C66.8828 20.9531 66.4062 20.8828 65.8594 20.9453C65.5312 20.7422 65.1797 20.625 64.8047 20.5938C64.4453 20.5625 64.0781 20.5156 63.7031 20.4531C63.6094 20.4375 63.5078 20.4219 63.3984 20.4062C63.3047 20.375 63.2031 20.3594 63.0938 20.3594C63.0156 20.3594 62.9375 20.3828 62.8594 20.4297C62.7969 20.4609 62.7812 20.5156 62.8125 20.5938C62.7344 20.4688 62.625 20.3984 62.4844 20.3828C62.3594 20.3516 62.25 20.2891 62.1562 20.1953C61.6562 20.1641 61.2188 20.0781 60.8438 19.9375C60.4688 19.7812 60.0547 19.6094 59.6016 19.4219C59.4766 19.375 59.3516 19.3438 59.2266 19.3281C59.1172 19.2969 59.0078 19.25 58.8984 19.1875C58.6172 19.0469 58.3906 18.8594 58.2188 18.625C58.0469 18.3906 57.9141 18.1328 57.8203 17.8516C57.7109 17.5547 57.6328 17.25 57.5859 16.9375C57.5391 16.625 57.4922 16.3359 57.4453 16.0703C57.5859 15.8203 57.7188 15.5625 57.8438 15.2969C57.9531 15.0312 58.0469 14.75 58.125 14.4531C58.2188 14.4062 58.3125 14.3672 58.4062 14.3359C58.5 14.3047 58.6016 14.2656 58.7109 14.2188C58.6953 14.1875 58.6875 14.1484 58.6875 14.1016C58.6875 14.0234 58.7109 13.9453 58.7578 13.8672C58.8203 13.7891 58.8359 13.7109 58.8047 13.6328C59.1484 13.3203 59.4766 13 59.7891 12.6719C60.1172 12.3281 60.3984 11.9531 60.6328 11.5469C60.8672 11.4688 61.0547 11.3516 61.1953 11.1953C61.3359 11.0391 61.4766 10.8828 61.6172 10.7266C61.7578 10.5547 61.9141 10.4062 62.0859 10.2812C62.2578 10.1406 62.4766 10.0547 62.7422 10.0234C62.8047 9.91406 62.8906 9.82812 63 9.76562C63.1094 9.6875 63.2188 9.61719 63.3281 9.55469C63.4375 9.49219 63.5391 9.42188 63.6328 9.34375C63.7266 9.26562 63.7969 9.15625 63.8438 9.01562C64.0938 9.01562 64.3203 8.96875 64.5234 8.875C64.7422 8.78125 64.9531 8.67969 65.1562 8.57031C65.3594 8.46094 65.5625 8.35938 65.7656 8.26562C65.9844 8.17188 66.2188 8.125 66.4688 8.125C66.5312 8.125 66.5938 8.13281 66.6562 8.14844C66.7188 8.14844 66.7891 8.15625 66.8672 8.17188C66.9766 8.28125 67.0469 8.41406 67.0781 8.57031C67.125 8.71094 67.1562 8.86719 67.1719 9.03906C67.1875 9.21094 67.1953 9.38281 67.1953 9.55469C67.2109 9.72656 67.2422 9.88281 67.2891 10.0234C67.1484 10.2891 66.9922 10.5547 66.8203 10.8203C66.6641 11.0859 66.4531 11.2891 66.1875 11.4297H66.1406C66.0312 11.4453 65.9297 11.4219 65.8359 11.3594C65.7422 11.2969 65.6328 11.2656 65.5078 11.2656C65.4297 11.2656 65.3672 11.2891 65.3203 11.3359L65.2031 11.4531C65.1719 11.4844 65.125 11.5156 65.0625 11.5469C65.0156 11.5781 64.9453 11.5781 64.8516 11.5469C64.6328 11.625 64.5469 11.7578 64.5938 11.9453C64.2969 11.9766 64.0469 12.0703 63.8438 12.2266C63.6406 12.3672 63.4531 12.5312 63.2812 12.7188C63.1094 12.8906 62.9375 13.0547 62.7656 13.2109C62.5938 13.3516 62.3906 13.4297 62.1562 13.4453C61.8906 13.9141 61.5625 14.3281 61.1719 14.6875C60.7969 15.0469 60.4844 15.4531 60.2344 15.9062C60.2812 16.0312 60.3125 16.1641 60.3281 16.3047C60.3438 16.4453 60.3672 16.5938 60.3984 16.75C60.5391 16.9375 60.7031 17.1016 60.8906 17.2422C61.0938 17.3828 61.2891 17.5234 61.4766 17.6641H61.5469C61.8594 17.6641 62.1484 17.7266 62.4141 17.8516C62.6797 17.9609 62.9609 18.0156 63.2578 18.0156C63.4141 18.0156 63.5469 17.9844 63.6562 17.9219C64.0625 18.0156 64.4609 18.0938 64.8516 18.1562C65.2578 18.2188 65.6641 18.2656 66.0703 18.2969C66.2734 18.3281 66.4766 18.3438 66.6797 18.3438C66.8984 18.3438 67.1016 18.3672 67.2891 18.4141C67.4609 18.4609 67.6328 18.5234 67.8047 18.6016C67.9766 18.6641 68.1484 18.7344 68.3203 18.8125C68.6797 18.9688 69.0156 19.1406 69.3281 19.3281C69.6562 19.5156 69.9453 19.7422 70.1953 20.0078C70.4453 20.2578 70.6406 20.5547 70.7812 20.8984C70.9219 21.2266 70.9922 21.6094 70.9922 22.0469ZM87 14.0547C86.9375 14.2109 86.875 14.3594 86.8125 14.5C86.75 14.6406 86.7031 14.7969 86.6719 14.9688C86.5625 15.0469 86.4375 15.1094 86.2969 15.1562C86.1719 15.1875 86.0391 15.2266 85.8984 15.2734C85.7578 15.3047 85.625 15.3516 85.5 15.4141C85.3906 15.4609 85.3047 15.5391 85.2422 15.6484C85.1953 15.8828 85.1719 16.1016 85.1719 16.3047C85.1719 16.5703 85.2188 16.7969 85.3125 16.9844C85.2656 17.125 85.2344 17.2734 85.2188 17.4297C85.2031 17.5859 85.1953 17.7344 85.1953 17.875C85.1953 18.3906 85.2578 18.9062 85.3828 19.4219C85.5078 19.9219 85.5781 20.4297 85.5938 20.9453C85.5938 21.0234 85.5859 21.1094 85.5703 21.2031C85.5547 21.2969 85.5469 21.3828 85.5469 21.4609C85.5469 21.7891 85.6719 22.0078 85.9219 22.1172C85.875 22.1953 85.8516 22.2656 85.8516 22.3281C85.8516 22.4531 85.8672 22.5625 85.8984 22.6562C85.9297 22.75 85.9375 22.8516 85.9219 22.9609C86 23.1172 86.0781 23.2578 86.1562 23.3828C86.2344 23.4922 86.2891 23.6328 86.3203 23.8047C86.2109 24.0234 86.0781 24.2266 85.9219 24.4141C85.7656 24.5859 85.6562 24.8047 85.5938 25.0703C85.5312 25.0547 85.4609 25.0469 85.3828 25.0469C85.2734 25.0469 85.1875 25.0703 85.125 25.1172C85.0625 25.1641 85.0078 25.2188 84.9609 25.2812C84.9297 25.3594 84.8906 25.4297 84.8438 25.4922C84.7969 25.5703 84.7344 25.625 84.6562 25.6562H84.5859C84.5078 25.6719 84.4375 25.6641 84.375 25.6328C84.3281 25.6172 84.2812 25.6094 84.2344 25.6094C84.2031 25.6094 84.1406 25.625 84.0469 25.6562C83.9219 25.5 83.8359 25.3125 83.7891 25.0938C83.7422 24.8906 83.7188 24.6875 83.7188 24.4844C83.7188 24.2656 83.75 24.0703 83.8125 23.8984C83.6406 23.7578 83.5312 23.5469 83.4844 23.2656C83.4531 22.9844 83.4141 22.75 83.3672 22.5625C83.2422 21.9844 83.0938 21.4219 82.9219 20.875C82.7656 20.3281 82.6719 19.7656 82.6406 19.1875C82.625 18.9688 82.6172 18.7578 82.6172 18.5547V17.3359C82.6172 17.1328 82.625 16.9375 82.6406 16.75C82.6406 16.6094 82.6484 16.4766 82.6641 16.3516C82.6953 16.2109 82.7109 16.0703 82.7109 15.9297C82.7109 15.7422 82.6484 15.5625 82.5234 15.3906C81.4141 15.4375 80.3594 15.6406 79.3594 16C78.375 16.3438 77.3906 16.7578 76.4062 17.2422C76.3438 17.6016 76.3047 17.9531 76.2891 18.2969C76.2734 18.6406 76.2656 18.9922 76.2656 19.3516V20.3828C76.2656 20.7734 76.2812 21.1016 76.3125 21.3672C76.3906 21.8203 76.6172 22.1719 76.9922 22.4219C77.3828 22.6562 77.7734 22.8359 78.1641 22.9609C78.1484 23.1953 78.1016 23.3984 78.0234 23.5703C77.9453 23.7266 77.8438 23.875 77.7188 24.0156C77.6094 24.1406 77.4844 24.2656 77.3438 24.3906C77.2031 24.5156 77.0625 24.6562 76.9219 24.8125C76.7969 24.7344 76.6719 24.6797 76.5469 24.6484C76.4219 24.6172 76.2891 24.6016 76.1484 24.6016C76.0078 24.5859 75.8672 24.5703 75.7266 24.5547C75.5859 24.5391 75.4453 24.5078 75.3047 24.4609L74.7891 23.7578C74.6172 23.5234 74.4297 23.2891 74.2266 23.0547V22.8438C74.2266 22.4219 74.1484 22.0156 73.9922 21.625C73.8359 21.2344 73.7188 20.8359 73.6406 20.4297C73.6875 20.2891 73.7188 20.1484 73.7344 20.0078C73.75 19.8672 73.7578 19.7188 73.7578 19.5625C73.7578 19.25 73.7422 18.9453 73.7109 18.6484C73.6953 18.3516 73.7031 18.0547 73.7344 17.7578H73.6172C73.4766 17.7578 73.3281 17.7969 73.1719 17.875C73.0156 17.9375 72.8594 18.0156 72.7031 18.1094C72.5625 18.1875 72.4219 18.2656 72.2812 18.3438C72.1562 18.4062 72.0469 18.4375 71.9531 18.4375C71.9062 18.4375 71.8594 18.4297 71.8125 18.4141C71.7656 18.3984 71.7109 18.3906 71.6484 18.3906C71.5703 18.3906 71.4766 18.4219 71.3672 18.4844C71.2578 18.5469 71.1406 18.6172 71.0156 18.6953C70.875 18.7578 70.7344 18.8203 70.5938 18.8828C70.4531 18.9453 70.3125 18.9766 70.1719 18.9766C69.9531 18.9766 69.7344 18.8828 69.5156 18.6953C69.4844 18.5703 69.4766 18.4531 69.4922 18.3438C69.4922 18.2344 69.4922 18.1172 69.4922 17.9922C69.4922 17.8672 69.4688 17.7344 69.4219 17.5938C69.5312 17.3906 69.6797 17.2344 69.8672 17.125C70.0391 17 70.2266 16.8906 70.4297 16.7969C70.6172 16.6875 70.8125 16.5859 71.0156 16.4922C71.2188 16.3828 71.3906 16.2422 71.5312 16.0703H71.6719C71.8906 16.0703 72.0859 16.0234 72.2578 15.9297C72.4453 15.8359 72.6562 15.7969 72.8906 15.8125C72.9688 15.7812 73.0234 15.6641 73.0547 15.4609L73.1484 15.4844C73.4922 15.4844 73.7969 15.3672 74.0625 15.1328C74.2344 14.1641 74.375 13.1875 74.4844 12.2031C74.5938 11.2188 74.6484 10.2344 74.6484 9.25C74.6484 9.15625 74.6172 9.0625 74.5547 8.96875C74.5234 8.84375 74.5078 8.72656 74.5078 8.61719V8.26562C74.5078 8.09375 74.5156 7.91406 74.5312 7.72656C74.5469 7.53906 74.5859 7.35156 74.6484 7.16406C74.8047 7.07031 74.9688 7.02344 75.1406 7.02344C75.3438 7.02344 75.5391 7.05469 75.7266 7.11719C75.9297 7.16406 76.125 7.20312 76.3125 7.23438C76.4531 7.375 76.5547 7.53125 76.6172 7.70312C76.6953 7.875 76.7422 8.05469 76.7578 8.24219C76.7734 8.41406 76.7734 8.59375 76.7578 8.78125C76.7578 8.95312 76.7578 9.125 76.7578 9.29688C76.7578 9.64062 76.7969 9.97656 76.875 10.3047C76.9531 10.6328 76.9922 10.9531 76.9922 11.2656C76.9922 11.3438 76.9609 11.4062 76.8984 11.4531C76.8516 11.4844 76.8281 11.5859 76.8281 11.7578C76.8281 11.9297 76.8438 12.1094 76.875 12.2969C76.9062 12.4844 76.9219 12.6719 76.9219 12.8594C76.9219 13.0781 76.8906 13.3047 76.8281 13.5391C76.7656 13.7734 76.7109 14 76.6641 14.2188C77.6016 14.1406 78.5625 14.0234 79.5469 13.8672C80.5312 13.7109 81.4688 13.4609 82.3594 13.1172C82.375 13.0859 82.3828 13.0391 82.3828 12.9766C82.3828 12.8828 82.375 12.7891 82.3594 12.6953C82.3438 12.6016 82.3359 12.5 82.3359 12.3906C82.3359 12.2031 82.3984 12.0547 82.5234 11.9453C82.4453 11.5078 82.3906 11.0703 82.3594 10.6328C82.3281 10.1953 82.3125 9.75781 82.3125 9.32031V7.98438C82.3125 7.54688 82.3047 7.10937 82.2891 6.67188C82.4141 6.59375 82.5469 6.55469 82.6875 6.55469C82.8594 6.55469 83.0156 6.60156 83.1562 6.69531C83.3125 6.77344 83.4922 6.8125 83.6953 6.8125C83.8359 6.8125 83.9531 6.78906 84.0469 6.74219C84.2188 6.89844 84.3359 7.10156 84.3984 7.35156C84.4609 7.60156 84.5156 7.85937 84.5625 8.125C84.6094 8.39062 84.6562 8.65625 84.7031 8.92188C84.7656 9.17188 84.8828 9.375 85.0547 9.53125L85.0781 9.60156C85.0781 9.66406 85.0469 9.71094 84.9844 9.74219C84.9219 9.77344 84.8906 9.83594 84.8906 9.92969V10.0234C84.9531 10.2734 85 10.5312 85.0312 10.7969C85.0625 11.0625 85.0859 11.3359 85.1016 11.6172C85.1328 11.8828 85.1719 12.1484 85.2188 12.4141C85.2656 12.6641 85.3516 12.8984 85.4766 13.1172C85.5547 13.1016 85.6562 13.0938 85.7812 13.0938C86.0938 13.0938 86.3359 13.2031 86.5078 13.4219C86.6953 13.625 86.8594 13.8359 87 14.0547ZM115.172 4.58594C115.141 4.66406 115.078 4.80469 114.984 5.00781C114.891 5.21094 114.844 5.34375 114.844 5.40625C114.844 5.53125 114.836 5.69531 114.82 5.89844C114.82 6.08594 114.883 6.20312 115.008 6.25C114.836 6.60938 114.727 6.97656 114.68 7.35156C114.648 7.71094 114.633 8.08594 114.633 8.47656C114.633 8.85156 114.625 9.23438 114.609 9.625C114.594 10 114.531 10.3672 114.422 10.7266C114.484 10.8203 114.5 10.9375 114.469 11.0781C114.453 11.2031 114.492 11.3047 114.586 11.3828C114.508 11.5078 114.461 11.6328 114.445 11.7578C114.43 11.8672 114.422 11.9844 114.422 12.1094C114.422 12.3594 114.445 12.6016 114.492 12.8359C114.32 13.0859 114.234 13.3672 114.234 13.6797C114.25 13.9766 114.258 14.2812 114.258 14.5938C114.258 14.8594 114.219 15.1172 114.141 15.3672C114.078 15.6172 114.047 15.875 114.047 16.1406C114.047 16.2188 114.055 16.2891 114.07 16.3516C114.086 16.4141 114.094 16.4844 114.094 16.5625C114.094 16.6406 114.062 16.6953 114 16.7266C113.953 16.7422 113.93 16.8125 113.93 16.9375C113.93 17.5156 113.891 18.0781 113.812 18.625C113.734 19.1562 113.633 19.6875 113.508 20.2188C113.398 20.7344 113.273 21.2578 113.133 21.7891C112.992 22.3203 112.867 22.8594 112.758 23.4062C112.586 23.5938 112.453 23.8047 112.359 24.0391C112.281 24.2734 112.133 24.4609 111.914 24.6016C111.711 25.1172 111.453 25.5859 111.141 26.0078C110.844 26.4297 110.508 26.8281 110.133 27.2031C109.773 27.5781 109.398 27.9375 109.008 28.2812C108.617 28.6406 108.234 29.0078 107.859 29.3828C107.703 29.3828 107.547 29.3828 107.391 29.3828C107.25 29.3984 107.102 29.4062 106.945 29.4062C106.602 29.4062 106.258 29.3906 105.914 29.3594C105.57 29.3281 105.242 29.2734 104.93 29.1953C104.867 28.9766 104.742 28.8281 104.555 28.75C104.383 28.6875 104.227 28.5859 104.086 28.4453C103.93 28.3047 103.812 28.1484 103.734 27.9766C103.656 27.8047 103.492 27.6875 103.242 27.625C103.164 27.3906 103.039 27.1172 102.867 26.8047C102.711 26.4922 102.555 26.1719 102.398 25.8438C102.242 25.5156 102.102 25.2031 101.977 24.9062C101.867 24.5938 101.812 24.3281 101.812 24.1094C101.812 24.0312 101.82 23.9609 101.836 23.8984C101.867 23.8203 101.891 23.7422 101.906 23.6641C101.812 23.5547 101.75 23.4141 101.719 23.2422C101.688 23.0703 101.664 22.8984 101.648 22.7266C101.648 22.5391 101.633 22.3672 101.602 22.2109C101.57 22.0391 101.5 21.9062 101.391 21.8125C101.203 21.9375 101.055 22.0938 100.945 22.2812C100.836 22.4688 100.734 22.6719 100.641 22.8906C100.562 23.1094 100.484 23.3281 100.406 23.5469C100.328 23.7656 100.234 23.9688 100.125 24.1562C99.9062 24.3281 99.7109 24.5234 99.5391 24.7422C99.3828 24.9609 99.2188 25.1797 99.0469 25.3984C98.8906 25.6328 98.7188 25.8438 98.5312 26.0312C98.3438 26.2344 98.125 26.3984 97.875 26.5234C97.8125 26.8047 97.6953 27.0391 97.5234 27.2266C97.3672 27.4297 97.1953 27.6094 97.0078 27.7656C96.8203 27.9375 96.6406 28.1094 96.4688 28.2812C96.2969 28.4688 96.1719 28.6953 96.0938 28.9609C95.8281 29.0859 95.5312 29.2656 95.2031 29.5C94.875 29.75 94.5391 30 94.1953 30.25C93.8672 30.5 93.5312 30.7109 93.1875 30.8828C92.8594 31.0703 92.5703 31.1641 92.3203 31.1641C92.1172 31.1641 91.9219 31.1406 91.7344 31.0938C91.5625 31.0625 91.3828 31.0234 91.1953 30.9766C91.0078 30.9297 90.8203 30.8828 90.6328 30.8359C90.4453 30.8047 90.25 30.7969 90.0469 30.8125C89.75 30.5 89.5234 30.1406 89.3672 29.7344C89.2109 29.3438 89.0156 28.9766 88.7812 28.6328C88.7031 28.1641 88.625 27.6875 88.5469 27.2031C88.4688 26.7344 88.4297 26.2656 88.4297 25.7969C88.4297 25.5312 88.4609 25.2812 88.5234 25.0469C88.5859 24.8281 88.6172 24.6016 88.6172 24.3672C88.6172 24.2891 88.6016 24.2188 88.5703 24.1562C88.5547 24.0781 88.5391 24 88.5234 23.9219C88.6328 23.7031 88.7188 23.4766 88.7812 23.2422C88.8438 22.9922 88.8906 22.7422 88.9219 22.4922C88.9688 22.2422 89.0156 22 89.0625 21.7656C89.1094 21.5156 89.1797 21.2812 89.2734 21.0625C89.3047 20.875 89.25 20.7344 89.1094 20.6406C89.2188 20.5312 89.2891 20.4141 89.3203 20.2891C89.3516 20.1641 89.3672 20.0391 89.3672 19.9141C89.3828 19.7891 89.3906 19.6562 89.3906 19.5156C89.3906 19.375 89.4062 19.2422 89.4375 19.1172C89.4531 19.0547 89.4922 18.9609 89.5547 18.8359L89.7656 18.4375C89.8438 18.2969 89.9062 18.1719 89.9531 18.0625C90.0156 17.9375 90.0469 17.8438 90.0469 17.7812C90.0469 17.6719 90.0156 17.5547 89.9531 17.4297C90.0156 17.1172 90.1172 16.8125 90.2578 16.5156C90.4141 16.2188 90.5312 15.9141 90.6094 15.6016C90.6875 15.2891 90.7344 15.0156 90.75 14.7812C90.7656 14.5312 90.8359 14.2422 90.9609 13.9141C90.9766 13.8828 90.9844 13.8438 90.9844 13.7969C90.9844 13.7344 90.9609 13.6953 90.9141 13.6797C90.8672 13.6641 90.8281 13.6328 90.7969 13.5859C90.9844 13.2266 91.125 12.8438 91.2188 12.4375C91.3281 12.0156 91.4141 11.5859 91.4766 11.1484C91.5547 10.7109 91.625 10.2812 91.6875 9.85938C91.75 9.42188 91.8438 9.00781 91.9688 8.61719C91.9219 8.30469 91.8828 7.98438 91.8516 7.65625C91.8203 7.3125 91.8047 6.98438 91.8047 6.67188C91.8047 6.3125 91.8359 5.94531 91.8984 5.57031C91.9766 5.19531 92.1406 4.86719 92.3906 4.58594C92.5156 4.58594 92.6484 4.57812 92.7891 4.5625C92.9453 4.54688 93.0859 4.53906 93.2109 4.53906C93.3984 4.53906 93.6016 4.58594 93.8203 4.67969C93.9297 5.17969 94.0703 5.67188 94.2422 6.15625C94.4141 6.64062 94.5 7.15625 94.5 7.70312C94.5 7.96875 94.4688 8.23438 94.4062 8.5L94.2422 9.27344C94.1953 9.52344 94.1562 9.78125 94.125 10.0469C94.0938 10.2969 94.1016 10.5469 94.1484 10.7969C93.9766 11.0312 93.875 11.3047 93.8438 11.6172C93.8281 11.9141 93.8203 12.1953 93.8203 12.4609C93.6641 12.6797 93.5469 12.8984 93.4688 13.1172C93.3906 13.3359 93.3281 13.5625 93.2812 13.7969C93.25 14.0156 93.2188 14.2422 93.1875 14.4766C93.1562 14.7109 93.1172 14.9453 93.0703 15.1797C93.0391 15.2578 92.9844 15.3516 92.9062 15.4609C92.8438 15.5703 92.8125 15.6484 92.8125 15.6953C92.8125 15.8047 92.8438 15.9141 92.9062 16.0234C92.875 16.0703 92.8438 16.1094 92.8125 16.1406C92.7812 16.1562 92.7578 16.1953 92.7422 16.2578C92.6953 16.4297 92.6562 16.6172 92.625 16.8203C92.6094 17.0078 92.5781 17.1875 92.5312 17.3594C92.4531 17.75 92.3438 18.1328 92.2031 18.5078C92.0781 18.8828 91.9453 19.2578 91.8047 19.6328C91.8047 19.9453 91.7891 20.1953 91.7578 20.3828C91.7422 20.5703 91.7109 20.7422 91.6641 20.8984C91.6328 21.0391 91.5859 21.1953 91.5234 21.3672C91.4766 21.5234 91.4297 21.7266 91.3828 21.9766C91.3359 22.2109 91.2891 22.5 91.2422 22.8438C91.2109 23.1875 91.1719 23.5469 91.125 23.9219C91.0938 24.2812 91.0703 24.6406 91.0547 25C91.0391 25.3438 91.0312 25.6406 91.0312 25.8906C91.0312 26.3438 91.0703 26.7812 91.1484 27.2031C91.2422 27.6406 91.3984 28.0547 91.6172 28.4453H92.0156C92.1094 28.4453 92.2109 28.4453 92.3203 28.4453C92.4297 28.4609 92.5312 28.4922 92.625 28.5391C92.7344 28.5078 92.7891 28.4609 92.7891 28.3984V28.2109C92.7891 28.1641 92.8281 28.1016 92.9062 28.0234L93.0703 28.0469C93.2266 28.0469 93.3672 28.0234 93.4922 27.9766C93.6328 27.9297 93.7734 27.8672 93.9141 27.7891C94.2109 27.3828 94.5547 27.0391 94.9453 26.7578C95.3516 26.4766 95.7109 26.1484 96.0234 25.7734C96.1016 25.6484 96.125 25.5 96.0938 25.3281C96.2812 25.2969 96.4219 25.2266 96.5156 25.1172C96.625 25.0078 96.7266 24.8906 96.8203 24.7656C96.9141 24.6406 97.0078 24.5234 97.1016 24.4141C97.2109 24.2891 97.3516 24.2031 97.5234 24.1562C97.6016 24.0156 97.6719 23.8672 97.7344 23.7109C97.7969 23.5391 97.8594 23.375 97.9219 23.2188C98 23.0625 98.0859 22.9219 98.1797 22.7969C98.2891 22.6562 98.4297 22.5469 98.6016 22.4688C98.8672 21.875 99.0938 21.2656 99.2812 20.6406C99.4688 20 99.75 19.4141 100.125 18.8828C100.125 18.6797 100.133 18.4922 100.148 18.3203C100.164 18.1484 100.156 17.9688 100.125 17.7812C100.516 17.25 100.766 16.6953 100.875 16.1172C100.984 15.5391 101.039 14.9297 101.039 14.2891C101.039 13.7578 101.211 13.3906 101.555 13.1875C101.914 12.9844 102.336 12.8828 102.82 12.8828H103.055C103.148 12.8828 103.234 12.8906 103.312 12.9062C103.344 13.0156 103.398 13.1016 103.477 13.1641C103.57 13.2109 103.664 13.2656 103.758 13.3281V13.4688C103.758 13.6875 103.727 13.8906 103.664 14.0781C103.617 14.25 103.594 14.4375 103.594 14.6406C103.594 14.7344 103.609 14.8594 103.641 15.0156C103.797 15.4688 103.914 15.8828 103.992 16.2578C104.086 16.6328 104.133 17.0703 104.133 17.5703C104.133 17.9922 104.109 18.4219 104.062 18.8594C104.031 19.2812 103.984 19.7031 103.922 20.125C104.016 20.2969 104.062 20.4766 104.062 20.6641C104.062 20.7891 104.047 20.9219 104.016 21.0625C104 21.1875 103.992 21.3125 103.992 21.4375C103.992 21.7031 104.031 21.9688 104.109 22.2344C104.203 22.4844 104.297 22.7344 104.391 22.9844C104.5 23.2344 104.594 23.4844 104.672 23.7344C104.75 23.9844 104.781 24.2344 104.766 24.4844C105.031 24.8125 105.266 25.1484 105.469 25.4922C105.688 25.8516 105.953 26.1641 106.266 26.4297C106.391 26.4609 106.492 26.4766 106.57 26.4766C106.664 26.4766 106.742 26.4609 106.805 26.4297C106.867 26.4141 106.922 26.3906 106.969 26.3594C107.031 26.3438 107.094 26.3281 107.156 26.3125C107.219 26.3125 107.312 26.3203 107.438 26.3359C107.719 26.1328 107.977 25.8984 108.211 25.6328C108.445 25.3828 108.664 25.125 108.867 24.8594C109.086 24.5938 109.305 24.3203 109.523 24.0391C109.742 23.7578 109.969 23.4922 110.203 23.2422C110.656 22.1172 111.023 20.9922 111.305 19.8672C111.586 18.7422 111.758 17.5703 111.82 16.3516C111.82 16.1797 111.859 16.0938 111.938 16.0938C112.016 16.0938 112.086 16.0391 112.148 15.9297V15.2734C112.148 14.7734 112.172 14.2734 112.219 13.7734C112.281 13.2734 112.398 12.7812 112.57 12.2969C112.523 12.1094 112.5 11.9219 112.5 11.7344C112.5 11.3281 112.531 10.9375 112.594 10.5625C112.672 10.1719 112.711 9.78125 112.711 9.39062C112.711 9.1875 112.688 8.98438 112.641 8.78125C112.609 8.5625 112.531 8.36719 112.406 8.19531L112.383 8.05469C112.383 7.96094 112.414 7.88281 112.477 7.82031C112.555 7.75781 112.609 7.6875 112.641 7.60938C112.562 7.40625 112.531 7.19531 112.547 6.97656C112.578 6.75781 112.594 6.53906 112.594 6.32031C112.594 6.19531 112.578 6.0625 112.547 5.92188C112.516 5.78125 112.438 5.67188 112.312 5.59375C112.453 5.4375 112.555 5.23437 112.617 4.98438C112.68 4.73438 112.719 4.46875 112.734 4.1875C112.766 3.90625 112.781 3.63281 112.781 3.36719C112.781 3.08594 112.797 2.85156 112.828 2.66406C112.969 2.50781 113.125 2.375 113.297 2.26562C113.484 2.14062 113.688 2.07812 113.906 2.07812C114.188 2.07812 114.391 2.17969 114.516 2.38281C114.641 2.57031 114.734 2.80469 114.797 3.08594C114.859 3.35156 114.906 3.625 114.938 3.90625C114.984 4.1875 115.062 4.41406 115.172 4.58594ZM131.273 11.4297C131.18 11.5703 131.125 11.7266 131.109 11.8984C131.094 12.0703 131.086 12.2266 131.086 12.3672C131.086 12.5547 131.086 12.7422 131.086 12.9297C131.102 13.1016 131.109 13.2734 131.109 13.4453V13.7969C131.078 13.9062 131.031 14.0156 130.969 14.125C130.906 14.2344 130.859 14.3438 130.828 14.4531C130.609 15.0312 130.5 15.6094 130.5 16.1875V16.2344C130.422 16.4219 130.344 16.5938 130.266 16.75C130.203 16.9062 130.141 17.0625 130.078 17.2188C130.016 17.3594 129.969 17.5156 129.938 17.6875C129.906 17.8438 129.898 18.0312 129.914 18.25C129.695 18.7969 129.406 19.2969 129.047 19.75C128.688 20.1875 128.336 20.6406 127.992 21.1094C127.664 21.2344 127.359 21.3984 127.078 21.6016C126.812 21.8047 126.555 22.0312 126.305 22.2812C125.82 22.4375 125.344 22.6172 124.875 22.8203C124.406 23.0234 123.984 23.2969 123.609 23.6406C123.312 23.6719 123.016 23.7188 122.719 23.7812C122.422 23.8438 122.133 23.9375 121.852 24.0625H121.57C121.43 24.0625 121.328 24.0312 121.266 23.9688C121.062 24.0781 120.852 24.1562 120.633 24.2031C120.414 24.2344 120.195 24.25 119.977 24.25C119.695 24.25 119.414 24.2344 119.133 24.2031C118.867 24.1562 118.594 24.1094 118.312 24.0625C118.156 23.8438 117.938 23.6797 117.656 23.5703C117.375 23.4453 117.125 23.3281 116.906 23.2188C116.453 22.5938 116.125 21.9922 115.922 21.4141C115.719 20.8203 115.508 20.1562 115.289 19.4219C115.32 19.2031 115.375 18.9922 115.453 18.7891C115.531 18.5703 115.562 18.3359 115.547 18.0859C115.828 17.2734 116.195 16.5391 116.648 15.8828C117.117 15.2109 117.648 14.5703 118.242 13.9609C118.242 13.8672 118.258 13.7891 118.289 13.7266C118.336 13.6641 118.344 13.5703 118.312 13.4453C118.328 13.4609 118.359 13.4688 118.406 13.4688C118.531 13.4688 118.609 13.4375 118.641 13.375C118.672 13.2969 118.68 13.2109 118.664 13.1172C119.227 12.7578 119.734 12.3438 120.188 11.875C120.656 11.4062 121.188 11.0156 121.781 10.7031C121.828 10.5625 121.906 10.4453 122.016 10.3516C122.125 10.2578 122.211 10.1484 122.273 10.0234C122.773 9.88281 123.227 9.67188 123.633 9.39062C124.039 9.10938 124.469 8.85938 124.922 8.64062C125.172 8.5 125.406 8.40625 125.625 8.35938C125.859 8.29688 126.109 8.23438 126.375 8.17188C126.469 8.14062 126.555 8.11719 126.633 8.10156C126.711 8.08594 126.797 8.07812 126.891 8.07812C127.172 8.07812 127.445 8.13281 127.711 8.24219C127.977 8.33594 128.25 8.38281 128.531 8.38281C128.609 8.38281 128.672 8.38281 128.719 8.38281C128.781 8.36719 128.844 8.35156 128.906 8.33594C129.172 8.66406 129.508 8.91406 129.914 9.08594C130.008 9.32031 130.117 9.52344 130.242 9.69531C130.383 9.86719 130.523 10.0391 130.664 10.2109C130.805 10.3672 130.93 10.5469 131.039 10.75C131.164 10.9375 131.242 11.1641 131.273 11.4297ZM128.93 12.6484C128.93 12.5703 128.922 12.5 128.906 12.4375C128.75 12.3906 128.602 12.3281 128.461 12.25C128.32 12.1719 128.164 12.1328 127.992 12.1328C127.883 12.1328 127.773 12.1562 127.664 12.2031C127.648 12.0938 127.602 12.0156 127.523 11.9688C127.461 11.9219 127.383 11.8828 127.289 11.8516C127.211 11.8047 127.125 11.7734 127.031 11.7578C126.953 11.7266 126.883 11.6797 126.82 11.6172C126.773 11.4922 126.719 11.3672 126.656 11.2422C126.609 11.1016 126.516 11 126.375 10.9375C126.234 11.0781 126.07 11.1953 125.883 11.2891C125.695 11.3672 125.5 11.4453 125.297 11.5234C125.109 11.6016 124.922 11.6953 124.734 11.8047C124.562 11.9141 124.414 12.0469 124.289 12.2031H123.867C123.773 12.375 123.641 12.5078 123.469 12.6016C123.297 12.6797 123.148 12.7969 123.023 12.9531C122.773 13.0781 122.539 13.2344 122.32 13.4219C122.117 13.5938 121.914 13.7812 121.711 13.9844C121.508 14.1719 121.305 14.3672 121.102 14.5703C120.914 14.7734 120.711 14.9609 120.492 15.1328C120.289 15.5703 120.062 15.9531 119.812 16.2812C119.578 16.5938 119.352 16.9141 119.133 17.2422C118.93 17.5703 118.75 17.9297 118.594 18.3203C118.453 18.6953 118.383 19.1641 118.383 19.7266V19.9609C118.383 20.0391 118.391 20.1172 118.406 20.1953C118.609 20.4141 118.773 20.6484 118.898 20.8984C119.039 21.1484 119.266 21.3281 119.578 21.4375C119.891 21.5625 120.219 21.6172 120.562 21.6016C120.922 21.5859 121.266 21.625 121.594 21.7188C122.344 21.5781 123.062 21.3516 123.75 21.0391C124.453 20.7109 125.117 20.3203 125.742 19.8672C125.836 19.7891 125.945 19.7109 126.07 19.6328C126.195 19.5391 126.297 19.4453 126.375 19.3516C126.453 19.2734 126.516 19.1875 126.562 19.0938C126.625 19 126.688 18.9141 126.75 18.8359C126.875 18.6328 127.016 18.4297 127.172 18.2266C127.328 18.0234 127.492 17.8359 127.664 17.6641C127.742 17.3203 127.844 16.9922 127.969 16.6797C128.094 16.3516 128.219 16.0312 128.344 15.7188C128.469 15.4062 128.57 15.0859 128.648 14.7578C128.742 14.4297 128.789 14.0859 128.789 13.7266C128.789 13.6484 128.781 13.5625 128.766 13.4688C128.766 13.375 128.758 13.2891 128.742 13.2109C128.867 13.0391 128.93 12.8516 128.93 12.6484ZM162.867 20.9219C162.836 21.1562 162.75 21.3359 162.609 21.4609C162.484 21.5859 162.336 21.7031 162.164 21.8125C162.086 21.7969 162.008 21.7891 161.93 21.7891C161.867 21.7734 161.797 21.7656 161.719 21.7656C161.234 21.75 160.773 21.8125 160.336 21.9531C159.914 22.0938 159.477 22.1953 159.023 22.2578C158.867 22.2891 158.719 22.3047 158.578 22.3047C158.453 22.2891 158.32 22.2969 158.18 22.3281C157.68 22.4062 157.148 22.4688 156.586 22.5156C156.023 22.5625 155.461 22.625 154.898 22.7031C154.336 22.7656 153.781 22.8516 153.234 22.9609C152.703 23.0547 152.203 23.1953 151.734 23.3828C151.688 23.3516 151.641 23.3203 151.594 23.2891C151.547 23.2422 151.492 23.2188 151.43 23.2188C151.273 23.2188 151.125 23.2422 150.984 23.2891C150.844 23.3359 150.703 23.3516 150.562 23.3359C150.406 23.4297 150.234 23.5 150.047 23.5469C149.875 23.5781 149.695 23.6094 149.508 23.6406C149.336 23.6562 149.164 23.6875 148.992 23.7344C148.82 23.7812 148.656 23.8672 148.5 23.9922C148.375 23.9297 148.219 23.8984 148.031 23.8984C147.859 23.8828 147.742 23.8203 147.68 23.7109C147.32 23.8828 146.938 23.9922 146.531 24.0391C146.141 24.0859 145.742 24.1016 145.336 24.0859C145.07 24.0703 144.766 24.0312 144.422 23.9688C144.078 23.9062 143.734 23.8203 143.391 23.7109C143.047 23.5859 142.727 23.4453 142.43 23.2891C142.133 23.1172 141.906 22.9141 141.75 22.6797C141.641 22.5234 141.562 22.3516 141.516 22.1641C141.469 21.9766 141.359 21.8359 141.188 21.7422C141.234 21.3828 141.289 21.0312 141.352 20.6875C141.414 20.3438 141.477 19.9922 141.539 19.6328C141.852 19.3672 142.148 19.0859 142.43 18.7891C142.711 18.4922 142.977 18.1797 143.227 17.8516C143.523 17.7109 143.797 17.5391 144.047 17.3359C144.312 17.1328 144.57 16.9297 144.82 16.7266C145.086 16.5078 145.344 16.2969 145.594 16.0938C145.859 15.8906 146.141 15.7109 146.438 15.5547C146.484 15.4453 146.547 15.3594 146.625 15.2969C146.719 15.2188 146.812 15.1484 146.906 15.0859C147 15.0078 147.086 14.9297 147.164 14.8516C147.242 14.7578 147.297 14.6484 147.328 14.5234C147.875 14.1953 148.352 13.7812 148.758 13.2812C149.164 12.7812 149.43 12.2188 149.555 11.5938C149.289 11.375 148.984 11.2344 148.641 11.1719C148.312 11.0938 147.969 11.0391 147.609 11.0078C147.297 10.9922 146.969 10.9922 146.625 11.0078C146.297 11.0234 145.961 11.0156 145.617 10.9844C145.273 11.0938 144.914 11.1641 144.539 11.1953C144.18 11.2266 143.82 11.2578 143.461 11.2891C143.102 11.3047 142.742 11.3516 142.383 11.4297C142.039 11.4922 141.703 11.6172 141.375 11.8047C141.312 11.8047 141.25 11.7969 141.188 11.7812C141.141 11.7656 141.086 11.7578 141.023 11.7578C140.523 11.7422 140.055 11.8438 139.617 12.0625C139.18 12.2656 138.75 12.4688 138.328 12.6719C138.297 12.7344 138.281 12.7812 138.281 12.8125C138.281 12.9062 138.297 13 138.328 13.0938C138.375 13.1719 138.398 13.2578 138.398 13.3516C138.383 13.3672 138.375 13.3828 138.375 13.3984C138.375 13.4141 138.367 13.4297 138.352 13.4453C138.336 13.5234 138.312 13.5938 138.281 13.6562C138.266 13.7188 138.242 13.7891 138.211 13.8672C138.039 14.3672 137.945 14.8594 137.93 15.3438C137.914 15.75 137.914 16.1484 137.93 16.5391C137.945 16.9297 137.945 17.3281 137.93 17.7344C137.898 18.2344 137.82 18.7031 137.695 19.1406C137.773 19.5156 137.844 19.9141 137.906 20.3359C137.969 20.7422 138.047 21.1484 138.141 21.5547C138.234 21.9609 138.344 22.3594 138.469 22.75C138.609 23.125 138.789 23.4844 139.008 23.8281C138.992 23.8594 139 23.8828 139.031 23.8984C139.062 23.9141 139.094 23.9219 139.125 23.9219H139.312C139.391 23.9219 139.422 23.9531 139.406 24.0156C139.438 24.0625 139.461 24.1094 139.477 24.1562C139.492 24.1875 139.523 24.2188 139.57 24.25C139.602 24.2969 139.602 24.3594 139.57 24.4375C139.555 24.75 139.477 25.0391 139.336 25.3047C139.195 25.5703 139.109 25.8594 139.078 26.1719C138.891 26.2188 138.719 26.2422 138.562 26.2422C138.297 26.2266 138.062 26.1484 137.859 26.0078C137.656 25.8828 137.469 25.7266 137.297 25.5391C137.125 25.3516 136.961 25.1641 136.805 24.9766C136.648 24.7734 136.477 24.6016 136.289 24.4609C136.18 24.0234 136.07 23.5391 135.961 23.0078C135.867 22.4766 135.703 22.0234 135.469 21.6484C135.531 21.5078 135.562 21.3359 135.562 21.1328C135.578 20.8203 135.547 20.5156 135.469 20.2188C135.406 19.9062 135.391 19.5938 135.422 19.2812C135.422 19.1094 135.438 18.9375 135.469 18.7656C135.516 18.5938 135.547 18.4219 135.562 18.25C135.578 17.9844 135.547 17.7266 135.469 17.4766C135.406 17.2266 135.383 16.9688 135.398 16.7031C135.414 16.5781 135.438 16.4609 135.469 16.3516C135.516 16.2266 135.578 16.1172 135.656 16.0234C135.578 15.8359 135.555 15.6562 135.586 15.4844C135.602 15.2188 135.633 14.9688 135.68 14.7344C135.727 14.5 135.758 14.2656 135.773 14.0312C135.773 13.9062 135.766 13.7891 135.75 13.6797C135.734 13.5547 135.711 13.4375 135.68 13.3281L135.469 13.2578C135.375 13.2578 135.281 13.2812 135.188 13.3281C135.109 13.375 135.039 13.4297 134.977 13.4922C134.914 13.5547 134.859 13.6094 134.812 13.6562C134.766 13.6875 134.719 13.7031 134.672 13.7031C134.641 13.7031 134.602 13.7031 134.555 13.7031C134.523 13.6875 134.492 13.6797 134.461 13.6797C134.43 13.6797 134.367 13.7109 134.273 13.7734C134.195 13.8359 134.094 13.9062 133.969 13.9844C133.859 14.0469 133.75 14.1172 133.641 14.1953C133.531 14.2578 133.445 14.2969 133.383 14.3125C133.211 14.2812 133.07 14.2266 132.961 14.1484C132.867 14.0547 132.773 13.9688 132.68 13.8906C132.602 13.7969 132.516 13.7188 132.422 13.6562C132.328 13.5781 132.211 13.5469 132.07 13.5625C132.023 13.4688 132 13.3672 132 13.2578C131.984 13.1484 131.984 13.0391 132 12.9297V12.5547C132.109 12.3516 132.258 12.1875 132.445 12.0625C132.617 11.9219 132.805 11.8047 133.008 11.7109L133.617 11.4297C133.82 11.3359 134.008 11.2188 134.18 11.0781H134.391C134.672 11.0938 134.914 11.0391 135.117 10.9141C135.336 10.7891 135.539 10.6484 135.727 10.4922C135.914 10.3203 136.102 10.1484 136.289 9.97656C136.492 9.80469 136.711 9.67188 136.945 9.57812C137.117 9.65625 137.297 9.72656 137.484 9.78906C137.672 9.83594 137.867 9.86719 138.07 9.88281C138.273 9.88281 138.484 9.85156 138.703 9.78906C138.922 9.72656 139.094 9.60938 139.219 9.4375C139.297 9.46875 139.359 9.49219 139.406 9.50781C139.469 9.50781 139.539 9.50781 139.617 9.50781C139.852 9.52344 140.086 9.49219 140.32 9.41406C140.555 9.32031 140.781 9.21094 141 9.08594C141.312 9.10156 141.617 9.08594 141.914 9.03906C142.227 8.97656 142.531 8.91406 142.828 8.85156C143.141 8.78906 143.445 8.73438 143.742 8.6875C144.055 8.625 144.367 8.60156 144.68 8.61719C145.195 8.63281 145.703 8.58594 146.203 8.47656C146.703 8.36719 147.211 8.32812 147.727 8.35938C148.086 8.375 148.438 8.40625 148.781 8.45312C149.141 8.48438 149.5 8.49219 149.859 8.47656C150.062 8.57031 150.242 8.65625 150.398 8.73438C150.57 8.79688 150.781 8.8125 151.031 8.78125C151.531 9.20312 151.984 9.69531 152.391 10.2578V10.6562C152.375 11.0156 152.312 11.3672 152.203 11.7109C152.094 12.0547 151.961 12.3984 151.805 12.7422C151.664 13.0703 151.508 13.3984 151.336 13.7266C151.164 14.0391 151 14.3516 150.844 14.6641C149.828 15.5859 148.812 16.5 147.797 17.4062C146.781 18.3125 145.734 19.1875 144.656 20.0312C144.625 20.1875 144.578 20.3281 144.516 20.4531C144.469 20.5781 144.438 20.7109 144.422 20.8516C144.422 20.9297 144.43 20.9922 144.445 21.0391C144.555 21.0703 144.648 21.1328 144.727 21.2266C144.82 21.3047 144.852 21.4141 144.82 21.5547H145.031C145.109 21.5547 145.148 21.5859 145.148 21.6484L145.523 21.6719C146.117 21.7031 146.711 21.6875 147.305 21.625C147.898 21.5625 148.492 21.4922 149.086 21.4141C149.695 21.3359 150.297 21.2656 150.891 21.2031C151.484 21.125 152.078 21.0781 152.672 21.0625C152.812 21.0156 152.961 20.9766 153.117 20.9453C153.273 20.9141 153.414 20.8516 153.539 20.7578H153.609C153.719 20.7578 153.797 20.7891 153.844 20.8516C153.906 20.9141 153.992 20.9531 154.102 20.9688C154.18 20.9688 154.258 20.9531 154.336 20.9219C154.43 20.8906 154.523 20.8672 154.617 20.8516C154.836 20.7891 155.062 20.75 155.297 20.7344C155.547 20.7188 155.789 20.6953 156.023 20.6641C156.93 20.5859 157.828 20.5391 158.719 20.5234C159.609 20.4922 160.5 20.375 161.391 20.1719C161.469 20.2812 161.578 20.3594 161.719 20.4062C161.859 20.4375 162.008 20.4766 162.164 20.5234C162.32 20.5547 162.461 20.5938 162.586 20.6406C162.727 20.6875 162.82 20.7812 162.867 20.9219ZM168.984 18.9766C168.984 19.1484 168.922 19.2812 168.797 19.375C168.672 19.4531 168.609 19.5625 168.609 19.7031C168.609 19.7656 168.641 19.8438 168.703 19.9375C168.484 19.9375 168.336 20.0078 168.258 20.1484C168.18 20.2891 168.102 20.4453 168.023 20.6172H167.719C167.641 20.6172 167.578 20.6328 167.531 20.6641C167.484 20.6953 167.438 20.7422 167.391 20.8047C167.359 20.8516 167.312 20.9297 167.25 21.0391C166.953 21.1016 166.664 21.2031 166.383 21.3438C166.117 21.4688 165.852 21.6094 165.586 21.7656C165.336 21.9062 165.078 22.0547 164.812 22.2109C164.547 22.3516 164.273 22.4688 163.992 22.5625C163.852 22.7969 163.648 22.9844 163.383 23.125H163.312C163.234 23.1406 163.164 23.1328 163.102 23.1016C163.055 23.0547 162.992 23.0312 162.914 23.0312C162.867 23.0312 162.836 23.0391 162.82 23.0547C162.352 23.3672 161.828 23.5234 161.25 23.5234C161.094 23.5234 160.945 23.5156 160.805 23.5C160.664 23.4688 160.516 23.4531 160.359 23.4531C160.312 23.4531 160.281 23.4688 160.266 23.5L160.219 23.5938C160.203 23.625 160.18 23.6562 160.148 23.6875C160.133 23.7188 160.078 23.7344 159.984 23.7344C159.812 23.7344 159.641 23.7109 159.469 23.6641C159.297 23.6172 159.117 23.6094 158.93 23.6406C158.57 23.4375 158.289 23.2422 158.086 23.0547C157.883 22.8672 157.695 22.5859 157.523 22.2109C157.445 22.0391 157.336 21.875 157.195 21.7188C157.07 21.5625 156.977 21.3906 156.914 21.2031C156.898 21.1406 156.875 21.0312 156.844 20.875C156.812 20.7031 156.781 20.5234 156.75 20.3359C156.719 20.1484 156.688 19.9688 156.656 19.7969C156.641 19.625 156.633 19.5078 156.633 19.4453C156.633 19.2578 156.641 19.0781 156.656 18.9062C156.688 18.7188 156.719 18.5312 156.75 18.3438C156.844 17.75 156.906 17.1562 156.938 16.5625C156.984 15.9531 157.117 15.3672 157.336 14.8047C157.305 14.6328 157.289 14.4688 157.289 14.3125V13.7969C157.289 13.5 157.25 13.25 157.172 13.0469C157.297 12.8438 157.359 12.6172 157.359 12.3672C157.359 12.0859 157.242 11.9219 157.008 11.875V11.8047C157.008 11.4766 156.898 11.2188 156.68 11.0312C156.68 10.4844 156.812 10.0781 157.078 9.8125C157.359 9.53125 157.727 9.28906 158.18 9.08594C158.242 8.99219 158.266 8.91406 158.25 8.85156C158.359 8.88281 158.461 8.91406 158.555 8.94531C158.648 8.97656 158.742 8.99219 158.836 8.99219C158.992 8.99219 159.133 8.96875 159.258 8.92188C159.305 9.10938 159.422 9.22656 159.609 9.27344C159.812 9.30469 159.977 9.35156 160.102 9.41406V9.71875C160.102 10.2031 160.219 10.6641 160.453 11.1016C160.391 11.2266 160.352 11.3594 160.336 11.5C160.32 11.6406 160.312 11.7734 160.312 11.8984C160.312 12.0859 160.32 12.2734 160.336 12.4609C160.352 12.6484 160.359 12.8281 160.359 13C160.359 13.1875 160.336 13.375 160.289 13.5625C160.258 13.75 160.172 13.9141 160.031 14.0547C160.016 14.2578 160 14.4922 159.984 14.7578C159.984 15.0078 159.969 15.2656 159.938 15.5312C159.922 15.7969 159.883 16.0547 159.82 16.3047C159.758 16.5547 159.664 16.7578 159.539 16.9141C159.523 17.1484 159.508 17.3906 159.492 17.6406C159.492 17.875 159.492 18.1016 159.492 18.3203C159.492 18.6641 159.508 19.0703 159.539 19.5391C159.586 20.0078 159.695 20.3984 159.867 20.7109C159.945 20.8359 160.094 20.9297 160.312 20.9922C160.547 21.0547 160.734 21.0859 160.875 21.0859C161.047 21.0859 161.219 21.0625 161.391 21.0156C161.578 20.9531 161.711 20.8516 161.789 20.7109C161.883 20.7266 161.945 20.7734 161.977 20.8516C162.008 20.9297 162.062 20.9922 162.141 21.0391C163.031 20.6641 163.922 20.3047 164.812 19.9609C165.703 19.6172 166.578 19.2188 167.438 18.7656C167.562 18.8281 167.695 18.8594 167.836 18.8594C167.992 18.8594 168.148 18.8438 168.305 18.8125C168.461 18.7812 168.617 18.7656 168.773 18.7656H168.938C168.969 18.8594 168.984 18.9297 168.984 18.9766ZM184.57 13.4453C184.57 13.6016 184.516 13.7031 184.406 13.75C184.297 13.7969 184.242 13.8906 184.242 14.0312C184.242 14.0781 184.258 14.1172 184.289 14.1484C184.32 14.1797 184.336 14.2266 184.336 14.2891V14.3828C184.148 15.2891 183.875 16.0781 183.516 16.75C183.172 17.4219 182.766 18.0391 182.297 18.6016C181.828 19.1641 181.297 19.6953 180.703 20.1953C180.125 20.6953 179.5 21.2188 178.828 21.7656C178.641 21.9219 178.445 22.0781 178.242 22.2344C178.055 22.3906 177.875 22.5547 177.703 22.7266L177.188 23.2188C177.172 23.2344 177.086 23.2734 176.93 23.3359C176.773 23.3828 176.68 23.4141 176.648 23.4297C176.43 23.5234 176.195 23.6328 175.945 23.7578C175.711 23.8828 175.508 24.0391 175.336 24.2266C175.023 24.2266 174.758 24.2734 174.539 24.3672C174.32 24.4609 174.078 24.5859 173.812 24.7422C173.734 24.7422 173.664 24.7266 173.602 24.6953C173.555 24.6641 173.5 24.6328 173.438 24.6016C173.375 24.5703 173.305 24.5547 173.227 24.5547C173.164 24.5391 173.078 24.5469 172.969 24.5781C172.781 24.2656 172.578 24 172.359 23.7812C172.141 23.5625 171.844 23.4297 171.469 23.3828C171.422 23.1172 171.312 22.9141 171.141 22.7734C170.969 22.6172 170.797 22.4531 170.625 22.2812C170.594 22.1875 170.57 22.0781 170.555 21.9531C170.539 21.8281 170.508 21.7109 170.461 21.6016C170.414 21.4922 170.352 21.3984 170.273 21.3203C170.195 21.2422 170.086 21.2031 169.945 21.2031C169.93 21.1094 169.969 21.0625 170.062 21.0625C170.156 21.0625 170.203 21.0234 170.203 20.9453C170.203 20.8516 170.188 20.7578 170.156 20.6641C170.125 20.5703 170.109 20.4688 170.109 20.3594C170.109 20.2812 170.117 20.2109 170.133 20.1484C170.148 20.0859 170.172 20.0156 170.203 19.9375C170.156 19.5156 170.133 19.0859 170.133 18.6484C170.133 17.8047 170.188 16.9766 170.297 16.1641C170.422 15.3359 170.484 14.5 170.484 13.6562C170.484 13.2812 170.461 12.9062 170.414 12.5312C170.383 12.1562 170.312 11.7891 170.203 11.4297C169.844 11.5078 169.484 11.6016 169.125 11.7109C168.766 11.8047 168.43 11.9375 168.117 12.1094C167.945 12 167.766 11.9375 167.578 11.9219C167.375 11.8906 167.18 11.8438 166.992 11.7812C166.883 11.5625 166.828 11.3359 166.828 11.1016C166.828 10.8828 166.867 10.6719 166.945 10.4688L167.18 9.85938C167.555 9.78125 167.93 9.66406 168.305 9.50781C168.664 9.35156 169.031 9.21094 169.406 9.08594C169.531 9.05469 169.688 9.01562 169.875 8.96875C170.078 8.92188 170.219 8.88281 170.297 8.85156C170.406 8.80469 170.477 8.71875 170.508 8.59375C170.555 8.45312 170.617 8.33594 170.695 8.24219H171.094C171.188 8.24219 171.289 8.25 171.398 8.26562C171.508 8.26562 171.609 8.28906 171.703 8.33594C172.266 8.19531 172.828 8.10938 173.391 8.07812C173.953 8.03125 174.531 7.96875 175.125 7.89062C175.188 7.89062 175.281 7.88281 175.406 7.86719L175.805 7.79688C175.945 7.76562 176.07 7.74219 176.18 7.72656C176.305 7.69531 176.391 7.67969 176.438 7.67969C176.484 7.67969 176.508 7.70312 176.508 7.75H176.906C177.578 7.75 178.234 7.83594 178.875 8.00781L180.797 8.52344C181.062 8.74219 181.328 8.95312 181.594 9.15625C181.859 9.35938 182.156 9.53906 182.484 9.69531C182.562 9.94531 182.68 10.1484 182.836 10.3047C183.008 10.4453 183.195 10.6016 183.398 10.7734C183.477 10.9766 183.578 11.1953 183.703 11.4297C183.844 11.6484 183.977 11.875 184.102 12.1094C184.227 12.3438 184.336 12.5781 184.43 12.8125C184.523 13.0312 184.57 13.2422 184.57 13.4453ZM182.391 13.7969C182.219 13.4375 182.055 13.0625 181.898 12.6719C181.742 12.2812 181.547 11.9297 181.312 11.6172C181.031 11.5391 180.742 11.4453 180.445 11.3359C180.164 11.2109 179.969 11 179.859 10.7031C179.828 10.7188 179.773 10.7266 179.695 10.7266C179.555 10.7266 179.43 10.6719 179.32 10.5625C179.211 10.4531 179.086 10.3828 178.945 10.3516C178.82 10.3359 178.648 10.3125 178.43 10.2812C178.227 10.25 178.008 10.2266 177.773 10.2109C177.539 10.1953 177.305 10.1797 177.07 10.1641C176.852 10.1484 176.68 10.1406 176.555 10.1406C176.43 10.1406 176.297 10.1484 176.156 10.1641C176.031 10.1641 175.898 10.1719 175.758 10.1875C175.633 10.1875 175.555 10.2109 175.523 10.2578C175.492 10.2891 175.43 10.3203 175.336 10.3516C175.258 10.3203 175.172 10.3047 175.078 10.3047H174.797C174.469 10.3047 174.141 10.3594 173.812 10.4688C173.5 10.5625 173.188 10.6953 172.875 10.8672V10.9609C172.875 11.0859 172.93 11.1562 173.039 11.1719C173.148 11.1875 173.211 11.25 173.227 11.3594C173.148 11.3594 173.086 11.3672 173.039 11.3828C172.992 11.3828 172.969 11.4375 172.969 11.5469C172.969 11.7031 172.984 11.875 173.016 12.0625C173.062 12.25 173.086 12.4375 173.086 12.625C173.086 12.7656 173.07 12.9297 173.039 13.1172C173.008 13.3047 172.93 13.4531 172.805 13.5625C172.961 13.7031 173.039 13.8906 173.039 14.125C173.039 14.2812 173.008 14.4453 172.945 14.6172C172.883 14.7891 172.805 14.9375 172.711 15.0625C172.68 15.7188 172.617 16.3828 172.523 17.0547C172.43 17.7266 172.383 18.3906 172.383 19.0469C172.383 19.375 172.398 19.6953 172.43 20.0078C172.477 20.3203 172.547 20.6328 172.641 20.9453C172.812 21.1172 172.992 21.25 173.18 21.3438C173.383 21.4375 173.594 21.5312 173.812 21.625V21.6953C173.812 21.7422 173.781 21.7891 173.719 21.8359C173.656 21.8828 173.625 21.9453 173.625 22.0234C173.625 22.0859 173.656 22.1172 173.719 22.1172C174.375 21.9297 174.992 21.7031 175.57 21.4375C176.148 21.1719 176.688 20.8125 177.188 20.3594C177.234 20.3125 177.281 20.2891 177.328 20.2891C177.359 20.2891 177.398 20.2969 177.445 20.3125C177.508 20.3281 177.562 20.3438 177.609 20.3594L177.586 20.2656C177.586 20.1719 177.609 20.0859 177.656 20.0078C177.719 19.9297 177.789 19.8594 177.867 19.7969L178.102 19.5859C178.18 19.5078 178.242 19.4297 178.289 19.3516C178.414 19.3203 178.5 19.2578 178.547 19.1641C178.609 19.0703 178.711 19.0234 178.852 19.0234C178.883 18.8516 178.969 18.7266 179.109 18.6484C179.25 18.5547 179.336 18.4219 179.367 18.25C179.68 18.0781 179.953 17.8672 180.188 17.6172C180.438 17.3672 180.664 17.1016 180.867 16.8203C181.086 16.5391 181.289 16.25 181.477 15.9531C181.664 15.6406 181.859 15.3438 182.062 15.0625V14.9688C182.062 14.7188 182.102 14.5156 182.18 14.3594C182.273 14.2031 182.344 14.0156 182.391 13.7969Z" fill="black"/>
</svg>
