<svg width="18" height="18" viewBox="0 0 18 18" fill="none" xmlns="http://www.w3.org/2000/svg">
<path d="M5.625 16.875C6.24632 16.875 6.75 16.3713 6.75 15.75C6.75 15.1287 6.24632 14.625 5.625 14.625C5.00368 14.625 4.5 15.1287 4.5 15.75C4.5 16.3713 5.00368 16.875 5.625 16.875Z" fill="black"/>
<path d="M13.5 16.875C14.1213 16.875 14.625 16.3713 14.625 15.75C14.625 15.1287 14.1213 14.625 13.5 14.625C12.8787 14.625 12.375 15.1287 12.375 15.75C12.375 16.3713 12.8787 16.875 13.5 16.875Z" fill="black"/>
<path d="M15.75 3.93761H3.27375L2.8125 1.57511C2.7862 1.44615 2.71551 1.33048 2.61273 1.24826C2.50995 1.16604 2.38159 1.12246 2.25 1.12511H0V2.25011H1.78875L3.9375 13.0501C3.9638 13.1791 4.03449 13.2947 4.13727 13.377C4.24005 13.4592 4.36841 13.5028 4.5 13.5001H14.625V12.3751H4.96125L4.5 10.1251H14.625C14.755 10.1283 14.8821 10.0863 14.9847 10.0063C15.0873 9.92632 15.1589 9.81325 15.1875 9.68636L16.3125 4.62386C16.3314 4.5404 16.3309 4.45374 16.3112 4.37048C16.2915 4.28721 16.2531 4.20953 16.1989 4.14336C16.1446 4.07719 16.076 4.02426 15.9982 3.98861C15.9204 3.95295 15.8355 3.93551 15.75 3.93761ZM14.175 9.00011H4.28625L3.49875 5.06261H15.0469L14.175 9.00011Z" fill="black"/>
</svg>
