<svg width="45" height="32" viewBox="0 0 45 32" fill="none" xmlns="http://www.w3.org/2000/svg">
<path d="M0.262695 6.25C0.262695 4.5924 0.921176 3.00268 2.09328 1.83058C3.26538 0.65848 4.85509 0 6.5127 0H37.7627C39.4203 0 41.01 0.65848 42.1821 1.83058C43.3542 3.00268 44.0127 4.5924 44.0127 6.25V25C44.0127 26.6576 43.3542 28.2473 42.1821 29.4194C41.01 30.5915 39.4203 31.25 37.7627 31.25H6.5127C4.85509 31.25 3.26538 30.5915 2.09328 29.4194C0.921176 28.2473 0.262695 26.6576 0.262695 25V6.25ZM40.8877 6.25C40.8877 5.4212 40.5585 4.62634 39.9724 4.04029C39.3864 3.45424 38.5915 3.125 37.7627 3.125H6.5127C5.68389 3.125 4.88904 3.45424 4.30299 4.04029C3.71694 4.62634 3.3877 5.4212 3.3877 6.25V9.375H40.8877V6.25ZM3.3877 25C3.3877 25.8288 3.71694 26.6237 4.30299 27.2097C4.88904 27.7958 5.68389 28.125 6.5127 28.125H37.7627C38.5915 28.125 39.3864 27.7958 39.9724 27.2097C40.5585 26.6237 40.8877 25.8288 40.8877 25V12.5H3.3877V25Z" fill="black" fill-opacity="0.8"/>
</svg>
