<svg width="42" height="42" viewBox="0 0 42 42" fill="none" xmlns="http://www.w3.org/2000/svg">
<path d="M21.096 0C9.60853 0 0.262695 9.34583 0.262695 20.8333V29.4646C0.262695 31.5979 2.13145 33.3333 4.42936 33.3333H6.5127C7.06523 33.3333 7.59513 33.1138 7.98583 32.7231C8.37654 32.3324 8.59603 31.8025 8.59603 31.25V20.5354C8.59603 19.9829 8.37654 19.453 7.98583 19.0623C7.59513 18.6716 7.06523 18.4521 6.5127 18.4521H4.62103C5.77936 10.3896 12.7169 4.16667 21.096 4.16667C29.4752 4.16667 36.4127 10.3896 37.571 18.4521H35.6794C35.1268 18.4521 34.5969 18.6716 34.2062 19.0623C33.8155 19.453 33.596 19.9829 33.596 20.5354V33.3333C33.596 35.6313 31.7273 37.5 29.4294 37.5H25.2627V35.4167H16.9294V41.6667H29.4294C34.0252 41.6667 37.7627 37.9292 37.7627 33.3333C40.0606 33.3333 41.9294 31.5979 41.9294 29.4646V20.8333C41.9294 9.34583 32.5835 0 21.096 0Z" fill="black" fill-opacity="0.8"/>
</svg>
