<svg width="31" height="30" viewBox="0 0 31 30" fill="none" xmlns="http://www.w3.org/2000/svg">
<path fill-rule="evenodd" clip-rule="evenodd" d="M3.80369e-07 2.50637C3.80369e-07 1.84164 0.270739 1.20413 0.752656 0.7341C1.23457 0.264066 1.88819 3.34134e-06 2.56973 3.34134e-06H28.1859C28.5236 -0.000534684 28.8582 0.0639073 29.1704 0.18964C29.4825 0.315372 29.7662 0.499926 30.0052 0.732735C30.2441 0.965543 30.4337 1.24204 30.5629 1.54638C30.6922 1.85073 30.7586 2.17695 30.7584 2.50637V27.4909C30.7588 27.8204 30.6925 28.1467 30.5635 28.4512C30.4344 28.7557 30.2451 29.0324 30.0063 29.2654C29.7675 29.4985 29.4839 29.6833 29.1718 29.8093C28.8596 29.9354 28.5251 30.0002 28.1873 30H2.56973C2.23215 30 1.89788 29.9351 1.58601 29.8091C1.27415 29.683 0.990801 29.4983 0.752161 29.2654C0.513522 29.0325 0.324266 28.7561 0.195208 28.4518C0.0661492 28.1476 -0.000183286 27.8215 3.80369e-07 27.4923V2.50637ZM12.1747 11.4382H16.3397V13.4782C16.9409 12.3055 18.4788 11.25 20.7899 11.25C25.2205 11.25 26.2705 13.5859 26.2705 17.8718V25.8109H21.7868V18.8482C21.7868 16.4073 21.1856 15.03 19.6588 15.03C17.5407 15.03 16.6599 16.515 16.6599 18.8482V25.8109H12.1747V11.4382ZM4.48514 25.6241H8.97027V11.25H4.48514V25.6227V25.6241ZM9.61201 6.56182C9.62046 6.93637 9.55213 7.3088 9.41101 7.65725C9.2699 8.0057 9.05885 8.32314 8.79024 8.59096C8.52164 8.85877 8.20089 9.07156 7.84683 9.21683C7.49277 9.3621 7.11252 9.43694 6.72841 9.43694C6.34429 9.43694 5.96404 9.3621 5.60998 9.21683C5.25592 9.07156 4.93517 8.85877 4.66657 8.59096C4.39796 8.32314 4.18691 8.0057 4.0458 7.65725C3.90468 7.3088 3.83635 6.93637 3.8448 6.56182C3.8614 5.82662 4.1725 5.12699 4.71147 4.61276C5.25044 4.09852 5.97444 3.81057 6.72841 3.81057C7.48237 3.81057 8.20637 4.09852 8.74534 4.61276C9.28431 5.12699 9.59541 5.82662 9.61201 6.56182Z" fill="#231F20"/>
</svg>
