<svg width="41" height="31" viewBox="0 0 41 31" fill="none" xmlns="http://www.w3.org/2000/svg">
<path fill-rule="evenodd" clip-rule="evenodd" d="M0.0638744 1.55919C0.0643096 1.35383 0.105221 1.15058 0.184268 0.961046C0.263316 0.771514 0.37895 0.599422 0.524557 0.454613C0.670164 0.309805 0.842888 0.195119 1.03285 0.117114C1.22282 0.0391093 1.42629 -0.000684626 1.63165 8.91147e-06L38.6994 0.0902444C39.5627 0.0921975 40.2627 0.795323 40.2627 1.65782V23.5301C40.2627 24.3938 39.5621 25.1004 38.6986 25.1082L30.3664 25.1844C30.1587 25.1865 29.9602 25.2705 29.814 25.4182C29.6678 25.5658 29.5857 25.7651 29.5856 25.9729V30.2701C29.5856 30.7014 29.3141 30.8322 28.9772 30.5608L22.0807 25.0016C21.0734 24.1898 21.0826 22.8832 22.1 22.0846L28.9699 16.6908C29.3098 16.4238 29.5856 16.557 29.5856 16.9904V21.1861C29.5853 21.2888 29.6053 21.3904 29.6444 21.4853C29.6834 21.5802 29.7408 21.6664 29.8132 21.7392C29.8856 21.8119 29.9716 21.8696 30.0663 21.9091C30.1611 21.9485 30.2626 21.9689 30.3652 21.9692H36.358C36.565 21.9688 36.7635 21.8867 36.9103 21.7407C37.0571 21.5947 37.1403 21.3967 37.1418 21.1897L37.2272 4.97638C37.2282 4.7715 37.1888 4.56843 37.1113 4.37879C37.0338 4.18915 36.9196 4.01665 36.7754 3.87117C36.6311 3.72568 36.4596 3.61006 36.2706 3.53093C36.0816 3.45179 35.8789 3.41069 35.674 3.40997L4.65704 3.3213C3.79473 3.31876 3.09298 4.01661 3.08966 4.87892L3.02911 20.407C3.02818 20.6119 3.06775 20.815 3.14555 21.0045C3.22335 21.1941 3.33783 21.3664 3.48243 21.5115C3.62703 21.6567 3.79889 21.7719 3.98813 21.8504C4.17738 21.9289 4.38027 21.9693 4.58516 21.9692H16.3043C16.5112 21.9694 16.7096 22.0516 16.856 22.1978C17.0024 22.344 17.0849 22.5423 17.0854 22.7492V24.4117C17.0854 24.5141 17.0652 24.6155 17.0259 24.71C16.9866 24.8045 16.929 24.8903 16.8563 24.9624C16.7836 25.0345 16.6974 25.0915 16.6026 25.1301C16.5078 25.1687 16.4063 25.1882 16.3039 25.1873L1.55743 25.1031C0.694733 25.0981 -0.00253215 24.3934 6.91245e-06 23.5313L0.0636788 1.55938L0.0638744 1.55919Z" fill="black" fill-opacity="0.8"/>
</svg>
