<svg width="47" height="34" viewBox="0 0 47 34" fill="none" xmlns="http://www.w3.org/2000/svg">
<path d="M0 7.29167H20.3125L21.875 10.4167H1.5625L0 7.29167ZM2.08333 13.5417H22.3958L23.9583 16.6667H3.64583L2.08333 13.5417ZM35.9375 30.2083C37.6667 30.2083 39.0625 28.8125 39.0625 27.0833C39.0625 25.3542 37.6667 23.9583 35.9375 23.9583C34.2083 23.9583 32.8125 25.3542 32.8125 27.0833C32.8125 28.8125 34.2083 30.2083 35.9375 30.2083ZM39.0625 11.4583H33.8542V16.6667H43.1458L39.0625 11.4583ZM15.1042 30.2083C16.8333 30.2083 18.2292 28.8125 18.2292 27.0833C18.2292 25.3542 16.8333 23.9583 15.1042 23.9583C13.375 23.9583 11.9792 25.3542 11.9792 27.0833C11.9792 28.8125 13.375 30.2083 15.1042 30.2083ZM40.1042 8.33333L46.3542 16.6667V27.0833H42.1875C42.1875 30.5417 39.3958 33.3333 35.9375 33.3333C32.4792 33.3333 29.6875 30.5417 29.6875 27.0833H21.3542C21.3542 30.5417 18.5417 33.3333 15.1042 33.3333C11.6458 33.3333 8.85417 30.5417 8.85417 27.0833H4.6875V19.7917H8.85417V22.9167H10.4375C11.5833 21.6458 13.25 20.8333 15.1042 20.8333C16.9583 20.8333 18.625 21.6458 19.7708 22.9167H29.6875V4.16667H4.6875C4.6875 1.85417 6.54167 0 8.85417 0H33.8542V8.33333H40.1042Z" fill="black" fill-opacity="0.8"/>
</svg>
